<!DOCTYPE svg PUBLIC "-//W3C//DTD SVG 1.1//EN" "http://www.w3.org/Graphics/SVG/1.1/DTD/svg11.dtd">
<!-- Uploaded to: SVG Repo, www.svgrepo.com, Transformed by: SVG Repo Mixer Tools -->
<svg width="800px" height="800px" viewBox="0 0 24 24" fill="none" xmlns="http://www.w3.org/2000/svg">

  <g id="SVGRepo_bgCarrier" stroke-width="0"/>

  <g id="SVGRepo_tracerCarrier" stroke-linecap="round" stroke-linejoin="round"/>

  <g id="SVGRepo_iconCarrier">
    <path d="M20.9423 3.05768C23.4117 5.52701 21.4099 11.5324 16.4712 16.4711C11.5326 21.4097 5.5272 23.4115 3.05787 20.9422C0.588547 18.4728 2.59033 12.4675 7.52899 7.5288C12.4676 2.59014 18.473 0.588345 20.9423 3.05768ZM3.05768 3.05782C0.588349 5.52715 2.59013 11.5325 7.52879 16.4712C12.4674 21.4099 18.4728 23.4117 20.9421 20.9423C23.4115 18.473 21.4097 12.4676 16.471 7.52894C11.5324 2.59028 5.527 0.588485 3.05768 3.05782Z" stroke="#483D8B" stroke-width="1.5" style="--darkreader-inline-stroke: #857ac5;" data-darkreader-inline-stroke=""/>
    <path opacity="0.5" d="M14.5 12C14.5 13.3807 13.3807 14.5 12 14.5C10.6193 14.5 9.5 13.3807 9.5 12C9.5 10.6193 10.6193 9.5 12 9.5C13.3807 9.5 14.5 10.6193 14.5 12Z" stroke="#483D8B" stroke-width="1.5" style="--darkreader-inline-stroke: var(--darkreader-text-483d8b, #857ac5);" data-darkreader-inline-stroke=""/>
  </g>

</svg>