<?xml version="1.0" encoding="UTF-8"?>
<svg xmlns="http://www.w3.org/2000/svg" id="Layer_1" data-name="Layer 1" viewBox="0 0 24 24">
  <path d="M22.965,12.734c.658,.57,1.035,1.396,1.035,2.266v5.5c0,1.5-1,2.5-2.5,2.5-1.381,0-2.5-1.119-2.5-2.5s1.119-2.5,2.5-2.5c.171,0,.338,.018,.5,.05v-3.05c0-.294-.123-.562-.345-.755-.223-.193-.505-.282-.796-.234l-3,.429c-.49,.069-.859,.495-.859,.989v6.071c0,1.5-1,2.5-2.5,2.5-1.381,0-2.5-1.119-2.5-2.5s1.119-2.5,2.5-2.5c.171,0,.338,.018,.5,.05v-3.622c0-1.483,1.107-2.76,2.576-2.969l3-.429c.863-.126,1.732,.133,2.39,.703Zm1.035-5.734v2c0,.552-.448,1-1,1s-1-.448-1-1v-1H2v9c0,1.654,1.346,3,3,3h4c.552,0,1,.447,1,1s-.448,1-1,1H5c-2.757,0-5-2.243-5-5V5C0,2.243,2.243,0,5,0h2.528c.463,0,.927,.109,1.341,.316l3.156,1.578c.138,.069,.293,.105,.447,.105h6.528c2.757,0,5,2.243,5,5ZM2,6H21.816c-.414-1.161-1.514-2-2.816-2h-6.528c-.463,0-.927-.109-1.341-.316l-3.156-1.578c-.138-.069-.293-.105-.447-.105h-2.528c-1.654,0-3,1.346-3,3v1Z"/>
</svg>
