<?xml version="1.0" encoding="UTF-8"?>
<svg xmlns="http://www.w3.org/2000/svg" id="Layer_1" data-name="Layer 1" viewBox="0 0 24 24">
  <path d="m18,5c1.381,0,2.5-1.119,2.5-2.5s-1.119-2.5-2.5-2.5-2.5,1.119-2.5,2.5,1.119,2.5,2.5,2.5Zm6,19h-2.625s-1.162-7.008-1.774-10.619l-.726-3.792c-.375-1.459-1.051-2.657-1.946-3.576,2.434.067,4.133,1.518,4.784,4.123.512,2.047,2.287,13.864,2.287,13.864ZM12,5c1.381,0,2.5-1.119,2.5-2.5s-1.119-2.5-2.5-2.5-2.5,1.119-2.5,2.5,1.119,2.5,2.5,2.5Zm4.955,5.136c-.667-2.667-2.426-4.136-4.955-4.136s-4.289,1.469-4.955,4.136c-.512,2.047-2.287,13.864-2.287,13.864h14.483s-1.775-11.817-2.287-13.864Zm-7.955-1.136l3,2,3-2v4.276l-3,2-3-2v-4.276Zm-.755,12c.202-1.317.457-2.949.712-4.529l3.043,2.029,3.043-2.029c.255,1.58.51,3.211.712,4.529h-7.51Zm-3.121-11.411l-.726,3.792c-.613,3.614-1.663,10.619-1.663,10.619H0s1.775-11.817,2.287-13.864c.651-2.604,2.35-4.056,4.784-4.123-.895.919-1.571,2.117-1.946,3.576Zm.875-4.589c1.381,0,2.5-1.119,2.5-2.5S7.381,0,6,0s-2.5,1.119-2.5,2.5,1.119,2.5,2.5,2.5Z"/>
</svg>
