<?xml version="1.0" encoding="UTF-8"?>
<svg xmlns="http://www.w3.org/2000/svg" id="Layer_1" data-name="Layer 1" viewBox="0 0 24 24">
  <path d="m18.5,17c0,.829-.671,1.5-1.5,1.5s-1.5-.671-1.5-1.5.671-1.5,1.5-1.5,1.5.671,1.5,1.5Zm5.207,6.707c-.195.195-.451.293-.707.293s-.512-.098-.707-.293l-1.822-1.822c-.981.699-2.177,1.115-3.471,1.115-3.308,0-6-2.692-6-6s2.692-6,6-6,6,2.692,6,6c0,1.294-.416,2.49-1.115,3.471l1.822,1.822c.391.391.391,1.023,0,1.414Zm-2.966-5.878c.334-.501.334-1.157,0-1.659-.632-.949-1.82-2.171-3.741-2.171-1.97,0-3.168,1.284-3.787,2.241-.294.454-.294,1.064,0,1.518.62.957,1.819,2.241,3.787,2.241,2.193,0,3.453-1.738,3.741-2.171Zm-9.741,5.171c0,.553-.448,1-1,1h-5c-2.757,0-5-2.243-5-5V5C0,2.243,2.243,0,5,0h4.515c1.871,0,3.629.729,4.95,2.051l3.484,3.484c.889.888,1.522,2.001,1.833,3.217.076.3.011.617-.179.861s-.481.387-.79.387h-5.813c-1.654,0-3-1.346-3-3V2.023c-.16-.016-.322-.023-.485-.023h-4.515c-1.654,0-3,1.346-3,3v14c0,1.654,1.346,3,3,3h5c.552,0,1,.447,1,1Zm1-16c0,.552.449,1,1,1h4.339c-.22-.383-.489-.736-.804-1.051l-3.484-3.484c-.318-.318-.671-.588-1.051-.806v4.341Z"/>
</svg>
