<?xml version="1.0" encoding="UTF-8"?>
<svg xmlns="http://www.w3.org/2000/svg" id="Layer_1" data-name="Layer 1" viewBox="0 0 24 24">
  <path d="m18.5,17c0,.829-.671,1.5-1.5,1.5s-1.5-.671-1.5-1.5.671-1.5,1.5-1.5,1.5.671,1.5,1.5Zm5.207,6.707c-.195.195-.451.293-.707.293s-.512-.098-.707-.293l-1.822-1.822c-.981.699-2.177,1.115-3.471,1.115-3.308,0-6-2.692-6-6s2.692-6,6-6,6,2.692,6,6c0,1.294-.416,2.49-1.115,3.471l1.822,1.822c.391.391.391,1.023,0,1.414Zm-2.966-5.878c.334-.501.334-1.157,0-1.659-.632-.949-1.82-2.171-3.741-2.171-1.97,0-3.168,1.284-3.787,2.241-.294.454-.294,1.064,0,1.518.62.957,1.819,2.241,3.787,2.241,2.001,0,3.453-1.738,3.741-2.171Zm-7.741-9.829h6.54c-.347-.913-.88-1.753-1.591-2.464l-3.484-3.486c-.712-.711-1.552-1.244-2.465-1.59v6.54c0,.551.448,1,1,1Zm-4,9c0-3.01,1.673-5.635,4.136-7h-.136c-1.654,0-3-1.346-3-3V.024c-.161-.011-.322-.024-.485-.024h-4.515C2.243,0,0,2.243,0,5v14c0,2.757,2.243,5,5,5h8.136c-2.463-1.365-4.136-3.99-4.136-7Z"/>
</svg>
