<?xml version="1.0" encoding="UTF-8"?>
<svg xmlns="http://www.w3.org/2000/svg" id="Layer_1" data-name="Layer 1" viewBox="0 0 24 24">
  <path d="m5.527,22.229l-.515-.857c3.988-2.394,3.988-7.583,3.988-10.371,0-1.654,1.346-3,3-3s3,1.346,3,3h-1c0-1.103-.897-2-2-2s-2,.897-2,2c0,2.986,0,8.544-4.473,11.229Zm9.471-8.187l-.996-.084c-.343,4.053-1.669,7.202-3.941,9.361l.688.725c2.456-2.332,3.884-5.697,4.249-10.002Zm2.584,6.665l-.941-.34c-.4,1.108-.895,2.152-1.468,3.102l.855.518c.608-1.006,1.131-2.109,1.554-3.279Zm1.418-9.792c0-3.812-3.102-6.915-6.915-6.915-1.96,0-3.837.84-5.15,2.304l.745.668c1.123-1.253,2.728-1.972,4.405-1.972,3.261,0,5.915,2.653,5.915,5.915,0,1.395,0,3.729-.505,6.318l.982.191c.522-2.686.522-5.079.522-6.51Zm-13,.085c0-.309.026-.617.077-.916l-.986-.168c-.06.354-.09.719-.09,1.084,0,7.614-4.165,8-5,8v1c1.002,0,6-.434,6-9Zm17,0c0-1.679-.37-3.292-1.101-4.793l-.898.438c.663,1.364.999,2.829.999,4.355,0,2.248,0,7.513-2.358,12.577l.906.422c2.452-5.266,2.452-10.685,2.452-12.999Zm-21,0C2,5.486,6.486,1,12,1c2.182,0,4.256.693,5.999,2.005l.602-.799c-1.918-1.443-4.2-2.206-6.601-2.206C5.935,0,1,4.935,1,11v3h1v-3Z"/>
</svg>
