<?xml version="1.0" encoding="UTF-8"?>
<svg xmlns="http://www.w3.org/2000/svg" id="Layer_1" data-name="Layer 1" viewBox="0 0 24 24">
  <path d="M23.551,4.779c-.548-1.078-1.482-1.875-2.634-2.246L13.72,.217c-1.159-.373-2.393-.267-3.472,.3-1.079,.567-1.866,1.521-2.217,2.688l-.239,.794h-3.293C2.019,4,0,6.019,0,8.5v11c0,2.481,2.019,4.5,4.5,4.5h7c1.584,0,2.973-.827,3.775-2.068,.239,.039,.477,.074,.713,.074,1.902,0,3.646-1.216,4.266-3.088l3.557-10.688c.38-1.147,.288-2.373-.26-3.451ZM11.5,23H4.5c-1.93,0-3.5-1.57-3.5-3.5V8.5c0-1.93,1.57-3.5,3.5-3.5h7c1.93,0,3.5,1.57,3.5,3.5v11c0,1.93-1.57,3.5-3.5,3.5ZM22.861,7.916l-3.557,10.687c-.51,1.543-1.998,2.496-3.576,2.38,.164-.467,.271-.961,.271-1.483V8.5c0-2.481-2.019-4.5-4.5-4.5h-2.664l.152-.506c.273-.908,.886-1.65,1.725-2.091,.839-.441,1.801-.523,2.7-.233l7.197,2.316c.896,.288,1.623,.908,2.049,1.747,.426,.838,.497,1.791,.202,2.683Z"/>
</svg>
