<?xml version="1.0" encoding="UTF-8"?>
<svg xmlns="http://www.w3.org/2000/svg" id="Layer_1" data-name="Layer 1" viewBox="0 0 24 24">
  <path d="M20.466,1.967L14.78,.221c-2.614-.797-5.406,.664-6.225,3.24l-.188,.539h-3.368C2.243,4,0,6.243,0,9v10c0,2.757,2.243,5,5,5h6c1.596,0,3.004-.766,3.92-1.934,.231,.032,.461,.052,.688,.052,2.167,0,4.144-1.414,4.775-3.564l3.413-10.397c.767-2.613-.727-5.39-3.331-6.189ZM11,22H5c-1.654,0-3-1.346-3-3V9c0-1.654,1.346-3,3-3h6c1.654,0,3,1.346,3,3v10c0,1.654-1.346,3-3,3ZM21.887,7.562l-3.412,10.397c-.358,1.214-1.413,2.022-2.603,2.132,.079-.353,.128-.716,.128-1.092V9c0-2.757-2.243-5-5-5h-.507c.534-1.501,2.163-2.341,3.7-1.867l5.686,1.746c1.562,.479,2.459,2.146,2.008,3.684Z"/>
</svg>
