<?xml version="1.0" encoding="UTF-8"?>
<svg xmlns="http://www.w3.org/2000/svg" id="Layer_1" data-name="Layer 1" width="512" height="512" viewBox="0 0 24 24"><path d="M9.5,11c-.276,0-.5-.224-.5-.5,0-1.215-.771-2.5-1.5-2.5s-1.5,1.285-1.5,2.5c0,.276-.224,.5-.5,.5s-.5-.224-.5-.5c0-1.652,1.069-3.5,2.5-3.5s2.5,1.848,2.5,3.5c0,.276-.224,.5-.5,.5Zm9.5-.5c0-1.652-1.069-3.5-2.5-3.5s-2.5,1.848-2.5,3.5c0,.276,.224,.5,.5,.5s.5-.224,.5-.5c0-1.215,.771-2.5,1.5-2.5s1.5,1.285,1.5,2.5c0,.276,.224,.5,.5,.5s.5-.224,.5-.5Zm5,1.5C24,5.383,18.617,0,12,0S0,5.383,0,12s5.383,12,12,12,12-5.383,12-12Zm-1,0c0,6.065-4.935,11-11,11S1,18.065,1,12,5.935,1,12,1s11,4.935,11,11Zm-4.236,3.31h0c.331-.521,.316-1.16-.039-1.668-.354-.505-.945-.74-1.543-.606-.287,.062-.612,.156-.979,.261-1.031,.296-2.443,.703-4.207,.703-1.763,0-3.17-.406-4.198-.702-.367-.106-.693-.199-.98-.262-.6-.133-1.19,.101-1.543,.606-.355,.508-.37,1.147-.039,1.668,1.169,1.836,3.713,3.69,6.764,3.69s5.595-1.854,6.764-3.69Zm-12.16-1.298c.269,.059,.574,.147,.917,.246,1.085,.313,2.571,.741,4.475,.742,1.905,0,3.395-.429,4.483-.742,.343-.099,.648-.187,.917-.246,.295-.061,.465,.139,.509,.203,.045,.065,.181,.297,.015,.558h0c-1.022,1.606-3.249,3.227-5.92,3.227s-4.898-1.621-5.92-3.227c-.166-.261-.031-.493,.015-.558,.039-.055,.17-.215,.397-.215,.035,0,.072,.003,.112,.012Z"/></svg>
