<?xml version="1.0" encoding="UTF-8"?>
<svg xmlns="http://www.w3.org/2000/svg" id="Layer_1" data-name="Layer 1" viewBox="0 0 24 24">
  <path d="m23.181,9.655c-.497-.452-1.142-.674-1.809-.652-.67.032-1.288.322-1.739.818l-3.732,4.102c-.314-1.108-1.335-1.922-2.543-1.922H3.5c-1.93,0-3.5,1.57-3.5,3.5v5c0,1.93,1.57,3.5,3.5,3.5h5.965c2.707,0,5.292-1.159,7.093-3.181l6.806-7.639c.911-1.022.829-2.604-.183-3.526Zm-.563,2.861l-6.806,7.639c-1.611,1.809-3.925,2.846-6.347,2.846H3.5c-1.379,0-2.5-1.122-2.5-2.5v-5c0-1.378,1.121-2.5,2.5-2.5h9.857c.905,0,1.643.737,1.643,1.642,0,.812-.606,1.511-1.398,1.624l-6.161.737c-.274.033-.47.282-.437.556.032.274.282.47.556.437l6.173-.739c1.021-.146,1.844-.878,2.145-1.824l4.496-4.94c.271-.298.643-.473,1.046-.492.402-.014.79.12,1.088.393.609.555.658,1.506.11,2.122Zm-12.72-3.803c.324.259.714.389,1.103.389s.778-.13,1.103-.389c1.349-1.076,3.897-3.667,3.897-5.783,0-1.616-1.233-2.93-2.75-2.93-.962,0-1.765.415-2.25,1.09-.485-.675-1.288-1.09-2.25-1.09-1.517,0-2.75,1.314-2.75,2.93,0,2.115,2.549,4.707,3.897,5.782Zm-1.147-7.712c1.03,0,1.75.703,1.75,1.709,0,.276.224.5.5.5s.5-.224.5-.5c0-1.006.72-1.709,1.75-1.709.965,0,1.75.866,1.75,1.93,0,1.512-2.059,3.834-3.521,5.001-.283.225-.676.225-.959,0-1.462-1.166-3.521-3.488-3.521-5,0-1.064.785-1.93,1.75-1.93Z"/>
</svg>
