<?xml version="1.0" encoding="UTF-8"?>
<svg xmlns="http://www.w3.org/2000/svg" id="Layer_1" data-name="Layer 1" viewBox="0 0 24 24" width="512" height="512"><path d="M12,23.12l-.29-.2c-.48-.33-11.71-8.2-11.71-15.15C0,4.04,2.8,1,6.25,1c2.54,0,4.79,1.8,5.75,4.31,.96-2.5,3.21-4.31,5.75-4.31,3.45,0,6.25,3.04,6.25,6.77,0,6.95-11.24,14.82-11.71,15.15l-.29,.2ZM6.25,2C3.4,2,1,4.64,1,7.77c0,5.85,9.25,12.85,11,14.13,1.75-1.28,11-8.28,11-14.13,0-3.13-2.4-5.77-5.25-5.77s-5.25,2.8-5.25,6v.21l-1.79,1.79,4,4-3.35,3.35-.71-.71,2.65-2.65-4-4,2.2-2.2c-.1-3.11-2.51-5.8-5.25-5.8Z"/></svg>
