<!DOCTYPE svg PUBLIC "-//W3C//DTD SVG 1.1//EN" "http://www.w3.org/Graphics/SVG/1.1/DTD/svg11.dtd">
<!-- Uploaded to: SVG Repo, www.svgrepo.com, Transformed by: SVG Repo Mixer Tools -->
<svg width="800px" height="800px" viewBox="0 0 24 24" fill="none" xmlns="http://www.w3.org/2000/svg">
<g id="SVGRepo_bgCarrier" stroke-width="0"/>
<g id="SVGRepo_tracerCarrier" stroke-linecap="round" stroke-linejoin="round"/>
<g id="SVGRepo_iconCarrier"> <path d="M15.0383 18.9109C17.9806 16.5914 22 14 22 9.1371C22 4.27416 16.4998 0.825464 12 5.50063L10.8822 7.73568C10.6998 8.10049 10.6086 8.28289 10.6531 8.46199C10.6975 8.64109 10.8635 8.75963 11.1954 8.99671L13.111 10.365C13.5268 10.662 13.7346 10.8105 13.7612 11.029C13.7878 11.2476 13.6215 11.4416 13.289 11.8295L11.6027 13.7969C11.3168 14.1305 11.1738 14.2972 11.1813 14.493C11.1888 14.6888 11.3442 14.8442 11.6548 15.1548L12.5996 16.0996C12.7952 16.2952 12.893 16.393 12.9281 16.5199C12.9633 16.6469 12.9298 16.781 12.8627 17.0493L12 20.5C13 20.5 14 19.7294 15.0383 18.9109Z" fill=" #483D8B" style="--darkreader-inline-fill: #3a316f;" data-darkreader-inline-fill=""/> <path opacity="0.5" d="M8.10627 18.2468C5.29819 16.0833 2 13.5422 2 9.1371C2 4.27416 7.50016 0.825464 12 5.50063L10.8822 7.73568C10.6998 8.10049 10.6086 8.28289 10.6531 8.46199C10.6975 8.64109 10.8635 8.75963 11.1954 8.99671L13.111 10.365C13.5268 10.662 13.7346 10.8105 13.7612 11.029C13.7878 11.2476 13.6215 11.4416 13.289 11.8295L11.6027 13.7969C11.3168 14.1305 11.1738 14.2972 11.1813 14.493C11.1888 14.6888 11.3442 14.8442 11.6548 15.1548L12.5996 16.0996C12.7952 16.2952 12.893 16.393 12.9281 16.5199C12.9633 16.6469 12.9298 16.781 12.8627 17.0493L12 20.5C11 20.5 10 19.7294 8.96173 18.9109C8.68471 18.6925 8.39814 18.4717 8.10627 18.2468Z" fill=" #483D8B" style="--darkreader-inline-fill: var(--darkreader-background-483d8b, #3a316f);" data-darkreader-inline-fill=""/> </g>
</svg>