<?xml version="1.0" encoding="UTF-8"?>
<svg xmlns="http://www.w3.org/2000/svg" id="Layer_1" data-name="Layer 1" viewBox="0 0 24 24">
  <path d="m23.995,22.582l-6.251-6.251c1.412-1.725,2.262-3.927,2.262-6.324C20.006,4.492,15.52.006,10.006.006S.006,4.492.006,10.006s4.486,10,10,10c2.398,0,4.6-.85,6.324-2.262l6.251,6.251,1.414-1.414Zm-13.989-4.576c-4.411,0-8-3.589-8-8S5.595,2.006,10.006,2.006s8,3.589,8,8-3.589,8-8,8Zm-1.006-5.006h2v2h-2v-2Zm4-5c0,1.125-.621,2.146-1.621,2.665-.227.118-.379.425-.379.765v.571h-2v-.571c0-1.1.559-2.073,1.458-2.54.335-.173.542-.514.542-.889,0-.551-.448-1-1-1s-1,.449-1,1h-2c0-1.654,1.346-3,3-3s3,1.346,3,3Z"/>
</svg>
