<svg xmlns="http://www.w3.org/2000/svg" viewBox="0 0 16 16">
  <path d="M9 1.949219L4.351563 5L2.5 5C1.675781 5 1 5.675781 1 6.5L1 9.5C1 10.324219 1.675781 11 2.5 11L4.351563 11L9 14.050781 Z M 8 3.800781L8 12.199219L5 10.230469L5 5.769531 Z M 10 5L10 6C11.109375 6 12 6.890625 12 8C12 9.109375 11.109375 10 10 10L10 11C11.652344 11 13 9.652344 13 8C13 6.347656 11.652344 5 10 5 Z M 2.5 6L4 6L4 10L2.5 10C2.21875 10 2 9.78125 2 9.5L2 6.5C2 6.21875 2.21875 6 2.5 6 Z M 10 7L10 9C10.550781 9 11 8.550781 11 8C11 7.449219 10.550781 7 10 7Z" fill="#FFFFFF" />
</svg>