<?xml version="1.0" encoding="UTF-8"?>
<svg xmlns="http://www.w3.org/2000/svg" id="Layer_1" data-name="Layer 1" viewBox="0 0 24 24" width="512" height="512"><path d="m9.5,6h-1.5c-1.103,0-2,.897-2,2v1.5c0,.827.673,1.5,1.5,1.5h2.5v.5c0,1.379-1.121,2.5-2.5,2.5-.276,0-.5.224-.5.5s.224.5.5.5c1.93,0,3.5-1.57,3.5-3.5v-4c0-.827-.673-1.5-1.5-1.5Zm-2.5,3.5v-1.5c0-.552.448-1,1-1h1.5c.275,0,.5.225.5.5v2.5h-2.5c-.275,0-.5-.225-.5-.5Zm9.5-3.5h-1.5c-1.103,0-2,.897-2,2v1.5c0,.827.673,1.5,1.5,1.5h2.5v.5c0,1.379-1.121,2.5-2.5,2.5-.276,0-.5.224-.5.5s.224.5.5.5c1.93,0,3.5-1.57,3.5-3.5v-4c0-.827-.673-1.5-1.5-1.5Zm-2.5,3.5v-1.5c0-.552.448-1,1-1h1.5c.275,0,.5.225.5.5v2.5h-2.5c-.275,0-.5-.225-.5-.5ZM20.5,0H3.5C1.57,0,0,1.57,0,3.5v13c0,1.93,1.57,3.5,3.5,3.5h3.605l3.898,3.283c.285.254.645.38,1.001.38.352,0,.702-.123.978-.368l3.985-3.295h3.532c1.93,0,3.5-1.57,3.5-3.5V3.5c0-1.93-1.57-3.5-3.5-3.5Zm2.5,16.5c0,1.379-1.121,2.5-2.5,2.5h-3.712c-.116,0-.229.041-.318.114l-4.138,3.421c-.189.168-.474.17-.674-.009l-4.048-3.409c-.09-.075-.204-.117-.322-.117h-3.788c-1.379,0-2.5-1.121-2.5-2.5V3.5c0-1.379,1.121-2.5,2.5-2.5h17c1.379,0,2.5,1.121,2.5,2.5v13Z"/></svg>
