<?xml version="1.0" encoding="UTF-8"?>
<svg xmlns="http://www.w3.org/2000/svg" id="Layer_1" data-name="Layer 1" viewBox="0 0 24 24" width="512" height="512"><path d="m19,0H5C2.243,0,0,2.243,0,5v14c0,2.757,2.243,5,5,5h14c2.757,0,5-2.243,5-5V5c0-2.757-2.243-5-5-5Zm-8,13c0,2.206-1.794,4-4,4-.553,0-1-.447-1-1s.447-1,1-1c1.103,0,2-.897,2-2h-1.5c-.828,0-1.5-.672-1.5-1.5v-1.5c0-1.105.895-2,2-2h1.5c.828,0,1.5.672,1.5,1.5v3.5Zm7,0c0,2.206-1.794,4-4,4-.553,0-1-.447-1-1s.447-1,1-1c1.103,0,2-.897,2-2h-1.5c-.828,0-1.5-.672-1.5-1.5v-1.5c0-1.105.895-2,2-2h1.5c.828,0,1.5.672,1.5,1.5v3.5Z"/></svg>
