<!DOCTYPE svg PUBLIC "-//W3C//DTD SVG 1.1//EN" "http://www.w3.org/Graphics/SVG/1.1/DTD/svg11.dtd">
<!-- Uploaded to: SVG Repo, www.svgrepo.com, Transformed by: SVG Repo Mixer Tools -->
<svg width="800px" height="800px" viewBox="0 0 24 24" fill="none" xmlns="http://www.w3.org/2000/svg">
<g id="SVGRepo_bgCarrier" stroke-width="0"/>
<g id="SVGRepo_tracerCarrier" stroke-linecap="round" stroke-linejoin="round"/>
<g id="SVGRepo_iconCarrier"> <path d="M6 8C6 4.68629 8.68629 2 12 2C15.3137 2 18 4.68629 18 8V13C18 16.3137 15.3137 19 12 19C8.68629 19 6 16.3137 6 13V8Z" stroke=" #483D8B" stroke-width="1.5" style="--darkreader-inline-stroke: #857ac5;" data-darkreader-inline-stroke=""/> <path opacity="0.5" d="M10 6.5C10 6.5 10.4727 6 12 6C13.5273 6 14 6.5 14 6.5" stroke=" #483D8B" stroke-width="1.5" stroke-linecap="round" style="--darkreader-inline-stroke: var(--darkreader-text-483d8b, #857ac5);" data-darkreader-inline-stroke=""/> <path opacity="0.5" d="M10 9.5C10 9.5 10.4727 9 12 9C13.5273 9 14 9.5 14 9.5" stroke=" #483D8B" stroke-width="1.5" stroke-linecap="round" style="--darkreader-inline-stroke: var(--darkreader-text-483d8b, #857ac5);" data-darkreader-inline-stroke=""/> <path opacity="0.5" d="M21 11V13C21 17.9706 16.9706 22 12 22C7.02944 22 3 17.9706 3 13V11" stroke=" #483D8B" stroke-width="1.5" stroke-linecap="round" style="--darkreader-inline-stroke: var(--darkreader-text-483d8b, #857ac5);" data-darkreader-inline-stroke=""/> </g>
</svg>