<!DOCTYPE svg PUBLIC "-//W3C//DTD SVG 1.1//EN" "http://www.w3.org/Graphics/SVG/1.1/DTD/svg11.dtd">
<!-- Uploaded to: SVG Repo, www.svgrepo.com, Transformed by: SVG Repo Mixer Tools -->
<svg width="800px" height="800px" viewBox="0 0 24 24" fill="none" xmlns="http://www.w3.org/2000/svg">
<g id="SVGRepo_bgCarrier" stroke-width="0"/>
<g id="SVGRepo_tracerCarrier" stroke-linecap="round" stroke-linejoin="round"/>
<g id="SVGRepo_iconCarrier"> <path d="M12.6644 5.47875L16.6367 9.00968C18.2053 10.404 18.9896 11.1012 18.9896 11.9993C18.9896 12.8975 18.2053 13.5946 16.6367 14.989L12.6644 18.5199C11.9484 19.1563 11.5903 19.4746 11.2952 19.342C11 19.2095 11 18.7305 11 17.7725V15.4279C7.4 15.4279 3.5 17.1422 2 19.9993C2 10.8565 7.33333 8.57075 11 8.57075V6.22616C11 5.26817 11 4.78917 11.2952 4.65662C11.5903 4.52407 11.9484 4.8423 12.6644 5.47875Z" stroke="#483D8B" stroke-width="1.5" stroke-linecap="round" stroke-linejoin="round" style="--darkreader-inline-stroke: #857ac5;" data-darkreader-inline-stroke=""/> <path opacity="0.5" d="M15.5386 4.5L20.7548 9.34362C21.5489 10.081 22.0001 11.1158 22.0001 12.1994C22.0001 13.3418 21.4989 14.4266 20.629 15.1671L15.5386 19.5" stroke="#483D8B" stroke-width="1.5" stroke-linecap="round" style="--darkreader-inline-stroke: var(--darkreader-text-483d8b, #857ac5);" data-darkreader-inline-stroke=""/> </g>
</svg>