<svg xmlns="http://www.w3.org/2000/svg" viewBox="0 0 24 24">
  <path d="M13 3 A 1.0001 1.0001 0 0 0 12 4L12 8L12 13.029297C11.160947 12.392756 10.127962 12 9 12C6.2504209 12 4 14.250421 4 17C4 19.749579 6.2504209 22 9 22C11.749579 22 14 19.749579 14 17L14 9L20 9 A 1.0001 1.0001 0 0 0 21 8L21 4 A 1.0001 1.0001 0 0 0 20 3L13 3 z M 14 5L19 5L19 7L14 7L14 5 z M 9 14C10.668699 14 12 15.331301 12 17C12 18.668699 10.668699 20 9 20C7.3313011 20 6 18.668699 6 17C6 15.331301 7.3313011 14 9 14 z" fill="#FFFFFF" />
</svg>