<svg xmlns="http://www.w3.org/2000/svg" viewBox="0 0 16 16">
  <path d="M9 1.949219L4.351563 5L2.5 5C1.675781 5 1 5.675781 1 6.5L1 9.5C1 10.324219 1.675781 11 2.5 11L4.351563 11L9 14.050781 Z M 8 3.800781L8 12.199219L5 10.230469L5 5.769531 Z M 10.730469 5.523438L10.019531 6.226563L11.792969 8L10.019531 9.773438L10.730469 10.480469L12.5 8.707031L14.269531 10.480469L14.980469 9.773438L13.207031 8L14.980469 6.226563L14.269531 5.523438L12.5 7.292969 Z M 2.5 6L4 6L4 10L2.5 10C2.21875 10 2 9.78125 2 9.5L2 6.5C2 6.21875 2.21875 6 2.5 6Z" fill="#FFFFFF" />
</svg>