<svg xmlns="http://www.w3.org/2000/svg" viewBox="0 0 50 50">
  <path d="M30.59375 4.59375L25.59375 9.59375L24.15625 11L25.59375 12.40625L30.59375 17.40625L33.40625 14.59375L31.8125 13L39 13C39.578125 13 40 13.421875 40 14L40 36C40 36.578125 39.578125 37 39 37L27 37L27 41L39 41C41.738281 41 44 38.738281 44 36L44 14C44 11.261719 41.738281 9 39 9L31.8125 9L33.40625 7.40625 Z M 11 9C8.261719 9 6 11.261719 6 14L6 36C6 38.738281 8.261719 41 11 41L18.1875 41L16.59375 42.59375L19.40625 45.40625L24.40625 40.40625L25.84375 39L24.40625 37.59375L19.40625 32.59375L16.59375 35.40625L18.1875 37L11 37C10.421875 37 10 36.578125 10 36L10 14C10 13.421875 10.421875 13 11 13L23 13L23 9Z" fill="#FFFFFF" />
</svg>