<svg xmlns="http://www.w3.org/2000/svg" viewBox="0 0 50 50">
  <path d="M30.585938 4.585938L24.171875 11L30.585938 17.414063L33.414063 14.585938L31.828125 13L39 13C39.578125 13 40 13.421875 40 14L40 36C40 36.578125 39.578125 37 39 37L28 37L28 41L39 41C41.738281 41 44 38.738281 44 36L44 14C44 11.261719 41.738281 9 39 9L31.828125 9L33.414063 7.414063 Z M 11 9C8.261719 9 6 11.261719 6 14L6 36C6 38.738281 8.261719 41 11 41L18.171875 41L16.585938 42.585938L19.414063 45.414063L25.828125 39L19.414063 32.585938L16.585938 35.414063L18.171875 37L11 37C10.421875 37 10 36.578125 10 36L10 14C10 13.421875 10.421875 13 11 13L22 13L22 9 Z M 25.375 18C25.300781 18.394531 25.140625 18.730469 24.902344 19C24.660156 19.273438 24.371094 19.496094 24.03125 19.667969C23.6875 19.839844 23.308594 19.964844 22.890625 20.039063C22.46875 20.113281 22.035156 20.152344 21.59375 20.152344L21.625 22L24.75 22L24.75 31L27 31L27 18Z" fill="#FFFFFF" />
</svg>