<svg xmlns="http://www.w3.org/2000/svg" viewBox="0 0 24 24">
  <path d="M18.548828 2.4121094C18.259326 2.4460449 18 2.6835938 18 3.0273438L18 5L14.574219 5C13.864289 5 13.205262 5.3788628 12.847656 5.9921875L10.5 10.015625L8.1523438 5.9921875C7.7947374 5.3788628 7.1357108 5 6.4257812 5L3 5 A 1.0001 1.0001 0 1 0 3 7L6.4257812 7L9.3417969 12L6.4257812 17L3 17 A 1.0001 1.0001 0 1 0 3 19L6.4257812 19C7.1357139 19 7.7966906 18.621137 8.1542969 18.007812L10.5 13.984375L12.847656 18.009766C13.205994 18.620931 13.864289 19 14.574219 19L18 19L18 20.972656C18 21.521656 18.663734 21.797203 19.052734 21.408203L21.673828 18.789062C22.109828 18.353063 22.109828 17.646937 21.673828 17.210938L19.052734 14.591797C18.663734 14.202797 18 14.477344 18 15.027344L18 17L14.574219 17L14.572266 16.998047L11.658203 12.001953L14.574219 7L18 7L18 8.9726562C18 9.5216562 18.663734 9.7972031 19.052734 9.4082031L21.673828 6.7890625C22.109828 6.3530625 22.109828 5.6469375 21.673828 5.2109375L19.052734 2.5917969C18.906859 2.4459219 18.722529 2.391748 18.548828 2.4121094 z" fill="#FFFFFF" />
</svg>