<?xml version="1.0" encoding="UTF-8"?>
<svg xmlns="http://www.w3.org/2000/svg" id="Layer_1" data-name="Layer 1" width="512" height="512" viewBox="0 0 24 24"><path d="M9.5,11c-.276,0-.5-.224-.5-.5,0-1.215-.771-2.5-1.5-2.5s-1.5,1.285-1.5,2.5c0,.276-.224,.5-.5,.5s-.5-.224-.5-.5c0-1.652,1.069-3.5,2.5-3.5s2.5,1.848,2.5,3.5c0,.276-.224,.5-.5,.5Zm9.5-.5c0-1.652-1.069-3.5-2.5-3.5s-2.5,1.848-2.5,3.5c0,.276,.224,.5,.5,.5s.5-.224,.5-.5c0-1.215,.771-2.5,1.5-2.5s1.5,1.285,1.5,2.5c0,.276,.224,.5,.5,.5s.5-.224,.5-.5Zm5,1.5C24,5.383,18.617,0,12,0S0,5.383,0,12s5.383,12,12,12,12-5.383,12-12Zm-1,0c0,6.065-4.935,11-11,11S1,18.065,1,12,5.935,1,12,1s11,4.935,11,11Zm-5.185,3.888c.214-.174,.246-.488,.073-.702-.174-.213-.489-.246-.703-.074-.023,.019-2.37,1.889-5.186,1.889s-5.162-1.87-5.186-1.889c-.216-.172-.528-.139-.703,.074-.173,.214-.141,.528,.073,.702,.106,.087,2.638,2.112,5.815,2.112s5.709-2.025,5.815-2.112Z"/></svg>
