<?xml version="1.0" encoding="UTF-8"?>
<svg xmlns="http://www.w3.org/2000/svg" id="Layer_1" data-name="Layer 1" viewBox="0 0 24 24" width="512" height="512"><path d="M21,22h-3.84s4.521-5.065,4.552-5.114c.364-.581,.383-1.313,.051-1.913-.333-.6-.965-.973-1.65-.973h-4.112c-.552,0-1,.447-1,1s.448,1,1,1h3.84s-4.521,5.065-4.552,5.114c-.364,.581-.383,1.313-.051,1.913,.333,.6,.965,.973,1.65,.973h4.112c.552,0,1-.447,1-1s-.448-1-1-1Zm1-18.5v5.5c0,.553-.448,1-1,1s-1-.447-1-1v-2h-3v2c0,.553-.448,1-1,1s-1-.447-1-1V3.5c0-1.93,1.57-3.5,3.5-3.5s3.5,1.57,3.5,3.5Zm-2,1.5v-1.5c0-.827-.673-1.5-1.5-1.5s-1.5,.673-1.5,1.5v1.5h3Zm-8.293,1.293c.391-.391,.391-1.023,0-1.414L7.414,.586C7.024,.196,6.512,0,6,0s-1.024,.195-1.414,.585L.293,4.879c-.391,.391-.391,1.023,0,1.414s1.023,.391,1.414,0l3.293-3.293V23c0,.553,.447,1,1,1s1-.447,1-1V3l3.293,3.293c.391,.391,1.023,.391,1.414,0Z"/></svg>
