<?xml version="1.0" encoding="UTF-8"?>
<svg xmlns="http://www.w3.org/2000/svg" id="Layer_1" data-name="Layer 1" viewBox="0 0 24 24" width="512" height="512"><path d="M15,1c0-.553,.447-1,1-1h4.112c.686,0,1.317,.372,1.649,.972,.332,.599,.313,1.332-.049,1.913-.03,.049-4.554,5.115-4.554,5.115h3.841c.553,0,1,.447,1,1s-.447,1-1,1h-4.112c-.686,0-1.317-.372-1.649-.972-.332-.599-.313-1.332,.049-1.913,.03-.049,4.554-5.115,4.554-5.115h-3.841c-.553,0-1-.447-1-1Zm7,16.5v5.5c0,.553-.447,1-1,1s-1-.447-1-1v-2h-3v2c0,.553-.447,1-1,1s-1-.447-1-1v-5.5c0-1.93,1.57-3.5,3.5-3.5s3.5,1.57,3.5,3.5Zm-2,0c0-.827-.673-1.5-1.5-1.5s-1.5,.673-1.5,1.5v1.5h3v-1.5Zm-9.707,.207l-3.293,3.293V1c0-.553-.447-1-1-1s-1,.447-1,1V21l-3.293-3.293c-.391-.391-1.023-.391-1.414,0s-.391,1.023,0,1.414l4.293,4.293c.39,.39,.902,.585,1.414,.585s1.024-.195,1.414-.585l4.293-4.293c.391-.391,.391-1.023,0-1.414s-1.023-.391-1.414,0Z"/></svg>
