<?xml version="1.0" encoding="UTF-8"?>
<svg xmlns="http://www.w3.org/2000/svg" id="Layer_1" data-name="Layer 1" viewBox="0 0 24 24" width="512" height="512"><path d="m20,0c-.553,0-1,.448-1,1v7.482L9.363.783c-1.238-.909-2.798-1.039-4.173-.343-1.372.696-2.19,2.029-2.19,3.567v15.993c0,1.538.818,2.872,2.191,3.568.577.292,1.189.44,1.817.44.843,0,1.657-.271,2.388-.809l9.604-7.683v7.483c0,.552.447,1,1,1s1-.448,1-1V1c0-.552-.447-1-1-1Zm-1.851,13.637l-9.97,7.976c-.618.453-1.399.518-2.085.17-.695-.353-1.095-1.002-1.095-1.783V4.007c0-.78.399-1.43,1.094-1.782.303-.153.618-.229.926-.229.401,0,.791.127,1.128.374l10.036,8.018c.519.38.816.967.816,1.611s-.298,1.231-.851,1.637Z"/></svg>
