<?xml version="1.0" encoding="UTF-8"?>
<svg xmlns="http://www.w3.org/2000/svg" id="Layer_1" data-name="Layer 1" viewBox="0 0 24 24" width="512" height="512"><path d="m18.885.424c-1.305-.661-2.849-.534-4.027.329l-8.857,7.757V1.5c0-.829-.672-1.5-1.5-1.5s-1.5.671-1.5,1.5v21c0,.829.672,1.5,1.5,1.5s1.5-.671,1.5-1.5v-7.01l8.856,7.756c.674.493,1.46.754,2.274.754.607,0,1.197-.143,1.753-.424,1.306-.661,2.116-1.981,2.116-3.444V3.867c0-1.463-.812-2.783-2.115-3.443Zm-.885,19.708c0,.341-.168.614-.471.768-.291.146-.591.13-.857-.044L7.353,12.695c-.228-.167-.353-.414-.353-.695s.125-.528.353-.695L16.671,3.145c.267-.174.569-.19.857-.044.305.154.472.426.472.767v16.265Z"/></svg>
