<!DOCTYPE svg PUBLIC "-//W3C//DTD SVG 1.1//EN" "http://www.w3.org/Graphics/SVG/1.1/DTD/svg11.dtd">
<!-- Uploaded to: SVG Repo, www.svgrepo.com, Transformed by: SVG Repo Mixer Tools -->
<svg width="800px" height="800px" viewBox="0 0 24 24" fill="none" xmlns="http://www.w3.org/2000/svg">
<g id="SVGRepo_bgCarrier" stroke-width="0"/>
<g id="SVGRepo_tracerCarrier" stroke-linecap="round" stroke-linejoin="round"/>
<g id="SVGRepo_iconCarrier"> <path opacity="0.5" d="M7 12H6C4.11438 12 3.17157 12 2.58579 12.5858C2 13.1716 2 14.1144 2 16V18C2 19.8856 2 20.8284 2.58579 21.4142C3.17157 22 4.11438 22 6 22H8C9.88562 22 10.8284 22 11.4142 21.4142C12 20.8284 12 19.8856 12 18V17" stroke="#483D8B" stroke-width="1.5" style="--darkreader-inline-stroke: #857ac5;" data-darkreader-inline-stroke=""/> <path d="M12 7H11C9.11438 7 8.17157 7 7.58579 7.58579C7 8.17157 7 9.11438 7 11V13C7 14.8856 7 15.8284 7.58579 16.4142C8.17157 17 9.11438 17 11 17H13C14.8856 17 15.8284 17 16.4142 16.4142C17 15.8284 17 14.8856 17 13V12" stroke="#483D8B" stroke-width="1.5" style="--darkreader-inline-stroke: var(--darkreader-text-483d8b, #857ac5);" data-darkreader-inline-stroke=""/> <path d="M12 6C12 4.11438 12 3.17157 12.5858 2.58579C13.1716 2 14.1144 2 16 2H18C19.8856 2 20.8284 2 21.4142 2.58579C22 3.17157 22 4.11438 22 6V8C22 9.88562 22 10.8284 21.4142 11.4142C20.8284 12 19.8856 12 18 12H16C14.1144 12 13.1716 12 12.5858 11.4142C12 10.8284 12 9.88562 12 8V6Z" stroke="#483D8B" stroke-width="1.5" style="--darkreader-inline-stroke: var(--darkreader-text-483d8b, #857ac5);" data-darkreader-inline-stroke=""/> </g>
</svg>