<?xml version="1.0" encoding="UTF-8"?>
<svg xmlns="http://www.w3.org/2000/svg" id="Layer_1" data-name="Layer 1" viewBox="0 0 24 24">
  <path d="m24,20.5s0,0,0,.001c0,0,0,.002,0,.003,0,1.381-1.119,2.5-2.5,2.5s-2.5-1.119-2.5-2.5,1.119-2.5,2.5-2.5c.171,0,.338.018.5.05v-3.917c0-.294-.123-.562-.345-.755-.223-.193-.504-.275-.797-.235l-2.57.367c-.734.105-1.288.744-1.288,1.485v6.504h0c0,1.381-1.119,2.5-2.5,2.5s-2.5-1.119-2.5-2.5,1.119-2.5,2.5-2.5c.171,0,.338.018.5.05v-4.054c0-1.73,1.292-3.22,3.005-3.465l2.571-.367c.861-.125,1.732.133,2.39.704.657.57,1.034,1.396,1.034,2.266v6.362ZM8,12c3.309,0,6-2.691,6-6S11.309,0,8,0,2,2.691,2,6s2.691,6,6,6Zm5,5.261v-2.261c0-.016.004-.032.004-.048-1.208-.604-2.565-.952-4.004-.952C4.038,14,0,18.038,0,23c0,.552.448,1,1,1h9.76c-.479-.715-.76-1.573-.76-2.496,0-1.956,1.254-3.624,3-4.243Z"/>
</svg>
