<?xml version="1.0" encoding="UTF-8"?>
<svg xmlns="http://www.w3.org/2000/svg" id="Layer_1" data-name="Layer 1" viewBox="0 0 24 24">
  <path d="m9,12c3.309,0,6-2.691,6-6S12.309,0,9,0,3,2.691,3,6s2.691,6,6,6Zm0-11c2.757,0,5,2.243,5,5s-2.243,5-5,5-5-2.243-5-5S6.243,1,9,1Zm4.278,14.883c-1.18-.586-2.451-.883-3.778-.883-4.687,0-8.5,3.813-8.5,8.5,0,.276-.224.5-.5.5s-.5-.224-.5-.5c0-5.238,4.262-9.5,9.5-9.5,1.483,0,2.903.333,4.223.988.247.123.348.423.225.67-.123.247-.421.349-.67.225Zm9.981-3.341c-.47-.408-1.094-.593-1.71-.503l-3.402.486c-1.224.175-2.146,1.239-2.146,2.475v4.501c-.418-.315-.938-.501-1.5-.501-1.378,0-2.5,1.122-2.5,2.5s1.122,2.5,2.5,2.5c1.077,0,1.997-.684,2.348-1.641.094-.091.152-.218.152-.359v-7c0-.742.554-1.38,1.288-1.485l3.402-.486c.325-.049.662.05.914.269.251.218.396.534.396.867v4.336c-.418-.315-.938-.501-1.5-.501-1.378,0-2.5,1.122-2.5,2.5s1.122,2.5,2.5,2.5c1.077,0,1.997-.684,2.348-1.641.094-.091.152-.218.152-.359v-6.835c0-.623-.27-1.215-.741-1.623Zm-8.759,10.458c-.827,0-1.5-.673-1.5-1.5s.673-1.5,1.5-1.5,1.5.673,1.5,1.5-.673,1.5-1.5,1.5Zm7-1c-.827,0-1.5-.673-1.5-1.5s.673-1.5,1.5-1.5,1.5.673,1.5,1.5-.673,1.5-1.5,1.5Z"/>
</svg>
