<?xml version="1.0" encoding="UTF-8"?>
<svg xmlns="http://www.w3.org/2000/svg" id="Layer_1" data-name="Layer 1" viewBox="0 0 24 24">
  <path d="m16.5,0H7.5C5.019,0,3,2.019,3,4.5v17.162c0,.977.589,1.832,1.501,2.181.911.347,1.922.104,2.585-.639l4.914-5.921,4.926,5.935c.454.508,1.083.781,1.732.781.281,0,.565-.052.841-.156.912-.349,1.501-1.204,1.501-2.181V4.5c0-2.481-2.019-4.5-4.5-4.5Zm3.5,21.662c0,.677-.443,1.088-.858,1.246-.415.158-1.02.148-1.459-.343l-5.298-6.385c-.095-.114-.236-.181-.385-.181s-.29.066-.385.181l-5.286,6.371c-.453.503-1.057.515-1.471.356s-.858-.569-.858-1.246V4.5c0-1.93,1.57-3.5,3.5-3.5h9c1.93,0,3.5,1.57,3.5,3.5v17.162Zm-4.25-15.662h-1.898l-.68-1.909c-.181-.486-.651-.813-1.171-.813s-.991.327-1.174.819l-.678,1.903h-1.898c-.521,0-.993.329-1.173.818-.181.49-.035,1.047.372,1.391l1.521,1.237-.604,1.935c-.159.506.02,1.059.443,1.375.218.163.477.249.749.249.248,0,.488-.072.714-.224l1.738-1.281,1.79,1.284c.443.287,1.023.263,1.444-.058.42-.324.591-.88.424-1.383l-.626-1.903,1.514-1.233c.4-.337.548-.894.369-1.385-.179-.492-.651-.822-1.174-.822Zm.167,1.437l-1.774,1.445c-.161.131-.224.348-.159.544l.734,2.231c.034.101,0,.212-.083.275-.086.064-.202.07-.272.025l-2.065-1.482c-.176-.127-.414-.125-.588.004l-2.01,1.482c-.075.05-.164.088-.292-.007-.084-.063-.12-.174-.088-.275l.706-2.258c.061-.195-.003-.408-.162-.537l-1.775-1.445c-.08-.066-.108-.178-.072-.275.036-.099.13-.164.234-.164h2.251c.211,0,.4-.133.471-.332l.794-2.229c.071-.193.399-.188.465-.006l.796,2.235c.071.199.26.332.471.332h2.251c.104,0,.199.066.235.164.036.099.006.21-.068.272Z"/>
</svg>
