<?xml version="1.0" encoding="UTF-8"?>
<svg xmlns="http://www.w3.org/2000/svg" id="Layer_1" data-name="Layer 1" viewBox="0 0 24 24">
  <path d="m17,0H7C4.243,0,2,2.243,2,5v15.996c0,1.235.742,2.329,1.889,2.786,1.149.46,2.439.173,3.317-.755l4.793-5.505,4.822,5.536c.581.613,1.367.939,2.172.939.374,0,.752-.07,1.117-.216,1.147-.457,1.889-1.551,1.889-2.786V5c0-2.757-2.243-5-5-5Zm-.297,8.467l-1.971,1.606.815,2.484c.112.336-.002.706-.282.922-.281.216-.667.231-.964.038l-2.295-1.495-2.257,1.51c-.14.094-.302.141-.464.141-.176,0-.352-.056-.5-.166-.283-.212-.401-.58-.295-.917l.784-2.513-1.981-1.612c-.267-.226-.364-.594-.243-.922.12-.328.432-.546.782-.546h2.501l.885-2.483c.121-.326.433-.542.781-.542s.66.216.781.542l.885,2.483h2.501c.35,0,.663.219.783.548.12.329.022.698-.246.923Z"/>
</svg>
