<!DOCTYPE svg PUBLIC "-//W3C//DTD SVG 1.1//EN" "http://www.w3.org/Graphics/SVG/1.1/DTD/svg11.dtd">
<!-- Uploaded to: SVG Repo, www.svgrepo.com, Transformed by: SVG Repo Mixer Tools -->
<svg fill="#000000" width="800px" height="800px" viewBox="0 0 32 32" enable-background="new 0 0 32 32" version="1.1" xml:space="preserve" xmlns="http://www.w3.org/2000/svg" xmlns:xlink="http://www.w3.org/1999/xlink" style="--darkreader-inline-fill: var(--darkreader-background-000000, #000000);" data-darkreader-inline-fill="">
<g id="SVGRepo_bgCarrier" stroke-width="0"/>
<g id="SVGRepo_tracerCarrier" stroke-linecap="round" stroke-linejoin="round"/>
<g id="SVGRepo_iconCarrier"> <g id="play"/> <g id="stop"/> <g id="pause"/> <g id="replay"/> <g id="next"/> <g id="Layer_8"/> <g id="search"/> <g id="list"/> <g id="love"/> <g id="menu"/> <g id="add"> <g> <g> <path d="M4.743,2.496C4.266,2.223,4,2.45,4,3v26c0,0.55,0.266,0.776,0.743,0.504l22.701-13.008 c0.478-0.273,0.509-0.719,0.031-0.992L4.743,2.496z"/> <path d="M4.385,30.619L4.385,30.619C3.718,30.619,3,30.112,3,29V3c0-1.113,0.718-1.62,1.385-1.62c0.28,0,0.567,0.083,0.854,0.248 l22.733,13.008c0.538,0.308,0.846,0.798,0.846,1.347c0,0.559-0.32,1.063-0.878,1.382L5.24,30.371 C4.952,30.536,4.665,30.619,4.385,30.619z M5.003,3.797L5,28.203l21.314-12.212L5.003,3.797z"/> </g> <g> <line x1="28" x2="20" y1="26" y2="26"/> <path d="M28,27h-8c-0.552,0-1-0.447-1-1s0.448-1,1-1h8c0.552,0,1,0.447,1,1S28.552,27,28,27z"/> </g> <g> <line x1="24" x2="24" y1="22" y2="30"/> <path d="M24,31c-0.552,0-1-0.447-1-1v-8c0-0.553,0.448-1,1-1s1,0.447,1,1v8C25,30.553,24.552,31,24,31z"/> </g> </g> </g> <g id="headset"/> <g id="random"/> <g id="music"/> <g id="setting"/> <g id="Layer_17"/> <g id="Layer_18"/> <g id="Layer_19"/> <g id="Layer_20"/> <g id="Layer_21"/> <g id="Layer_22"/> <g id="Layer_23"/> <g id="Layer_24"/> <g id="Layer_25"/> <g id="Layer_26"/> </g>
</svg>