<!DOCTYPE svg PUBLIC "-//W3C//DTD SVG 1.1//EN" "http://www.w3.org/Graphics/SVG/1.1/DTD/svg11.dtd">
<!-- Uploaded to: SVG Repo, www.svgrepo.com, Transformed by: SVG Repo Mixer Tools -->
<svg height="800px" width="800px" version="1.1" id="_x32_" xmlns="http://www.w3.org/2000/svg" xmlns:xlink="http://www.w3.org/1999/xlink" viewBox="0 0 512 512" xml:space="preserve" fill="#000000" style="--darkreader-inline-fill: var(--darkreader-background-000000, #000000);" data-darkreader-inline-fill="">
<g id="SVGRepo_bgCarrier" stroke-width="0"/>
<g id="SVGRepo_tracerCarrier" stroke-linecap="round" stroke-linejoin="round"/>
<g id="SVGRepo_iconCarrier"> <style type="text/css"> .st0{fill:#483d8b;} </style>
<style class="darkreader darkreader--sync" media="screen"/> <g> <path class="st0" d="M270.16,128.905c20.016,8.398,43.083-1.019,51.489-21.067c8.406-20.04-1.035-43.082-21.059-51.48 c-20.048-8.414-43.09,1.028-51.497,21.051C240.688,97.441,250.121,120.507,270.16,128.905z"/> <path class="st0" d="M352.496,122.739c8.526,1.911,16.981-3.468,18.876-11.995c1.902-8.518-3.469-16.972-11.987-18.884 c-8.518-1.894-16.989,3.485-18.884,12.012C338.59,112.382,343.962,120.844,352.496,122.739z"/> <path class="st0" d="M507.467,428.7l-52.741-13.296l-57.639-289.429l26.84,4.761l3.091-13.842l-51.657-13.931l-4.111,18.426 l13.159,2.337l0.081,0.394c-5.5-0.161-10.799,2.962-13.095,8.326l-33.328,53.286l-35.366-20.987L108.486,49.14 c-7.065-4.657-16.556-2.706-21.212,4.359c-4.648,7.058-2.698,16.556,4.368,21.204l99.749,76.9 c2.842,1.999,3.452,6.255,0.883,11.104C188.412,169.98,5.003,417.122,5.003,417.122c-7.298,8.254-6.52,20.86,1.734,28.165 c8.262,7.298,20.883,6.52,28.182-1.742l139.66-130.757c3.998-3.998,6.222-6.222,16.884,0.876l61.917,35.551l6.52,90.757 c0.056,9.924,8.157,17.913,18.072,17.84c9.924-0.064,17.913-8.149,17.856-18.065l5.716-100.143 c0.538-10.268-2.128-16.612-9.94-23.925l-58.377-55.311c0,0,38.024-39.276,44.616-44.961c3.019-2.625,5.813-7.33,10.735-5.684 l46.824,18.643c12.324,6.013,18.908-1.325,25.298-7.17l30.14-65.17l52.187,262.116l-40.577,36.803 c-2.449,2.232-2.633,6.03-0.409,8.471c1.18,1.309,2.81,1.975,4.456,1.975c1.429,0,2.874-0.514,4.014-1.557l40.714-36.932 l53.303,13.424c0.498,0.128,0.988,0.185,1.478,0.185c2.674,0,5.13-1.814,5.812-4.528 C512.622,432.762,510.678,429.502,507.467,428.7z"/> </g> </g>
</svg>