<!DOCTYPE svg PUBLIC "-//W3C//DTD SVG 1.1//EN" "http://www.w3.org/Graphics/SVG/1.1/DTD/svg11.dtd">
<!-- Uploaded to: SVG Repo, www.svgrepo.com, Transformed by: SVG Repo Mixer Tools -->
<svg fill="#483D8B" version="1.1" id="Layer_1" xmlns="http://www.w3.org/2000/svg" xmlns:xlink="http://www.w3.org/1999/xlink" width="800px" height="800px" viewBox="0 0 100 100" enable-background="new 0 0 100 100" xml:space="preserve" style="--darkreader-inline-fill: var(--darkreader-background-483d8b, #3a316f);" data-darkreader-inline-fill="">
<g id="SVGRepo_bgCarrier" stroke-width="0"/>
<g id="SVGRepo_tracerCarrier" stroke-linecap="round" stroke-linejoin="round"/>
<g id="SVGRepo_iconCarrier"> <g> <path d="M74.656,56.818c3.895,3.729,5.788,8.795,5.788,15.491c0,1.104,0.896,2,2,2s2-0.885,2-1.989 c0-7.736-2.362-13.91-7.022-18.369C66.646,43.639,46.325,44.551,30,45.269c-2.28,0.101-4.461,0.211-6.499,0.28L38.428,30.62 c0.781-0.781,0.781-2.047,0-2.828s-2.048-0.781-2.828,0L17.479,45.915c-0.375,0.375-0.586,0.884-0.586,1.414 s0.211,1.039,0.586,1.414l18.123,18.12c0.391,0.391,0.902,0.586,1.414,0.586s1.024-0.195,1.415-0.586 c0.781-0.781,0.781-2.048,0-2.828L24.142,49.75c1.915-0.11,3.932-0.261,6.033-0.354C44.919,48.748,65.114,47.688,74.656,56.818z"/> </g> </g>
</svg>