<?xml version="1.0" encoding="utf-8"?>
<!-- Uploaded to: SVG Repo, www.svgrepo.com, Generator: SVG Repo Mixer Tools -->
<svg fill="#000000" version="1.1" id="Layer_1" xmlns="http://www.w3.org/2000/svg" xmlns:xlink="http://www.w3.org/1999/xlink" 
	 width="800px" height="800px" viewBox="0 0 208 256" enable-background="new 0 0 208 256" xml:space="preserve">
<path d="M50.452,221.871v16.064c0,8.982-7.255,16.064-16.064,16.064s-16.064-7.082-16.064-16.064v-16.064H2.086v-52.512l0,0
	c0-11.573,7.773-21.074,18.31-24.01l18.828-44.739c2.764-6.564,9.155-11.228,16.755-11.228h96.214c7.6,0,13.992,4.664,16.755,11.228
	l18.656,44.739c10.537,2.937,18.31,12.437,18.31,24.01l0,0v52.512h-16.41v16.064c0,8.982-7.255,16.064-16.064,16.064
	c-8.982,0-16.064-7.082-16.064-16.064v-16.064H50.452z M35.424,193.024c8.982,0,16.237-7.255,16.237-16.237
	c0-8.982-7.255-16.237-16.237-16.237s-16.237,7.255-16.237,16.237S26.441,193.024,35.424,193.024 M187.777,176.787
	c0-8.982-7.255-16.237-16.237-16.237c-8.982,0-16.237,7.255-16.237,16.237s7.255,16.237,16.237,16.237
	C180.522,193.024,187.777,185.769,187.777,176.787 M171.54,144.485l-16.064-38.693c-0.691-1.9-2.591-3.282-4.837-3.282H57.361
	c-2.073,0-3.973,1.382-4.664,3.282l-16.064,38.693H171.54z M127.911,36.626c0,13.253-10.715,23.798-23.798,23.798
	S80.314,49.766,80.314,36.626c0-13.253,10.715-23.798,23.798-23.798S127.911,23.43,127.911,36.626z M175.282,2v69.027H32.718V2
	H175.282z M154.36,8.936H53.527c-1.861,6.88-6.993,12.52-13.929,14.268v26.449c6.88,1.861,12.181,7.5,13.929,13.253h100.946
	c1.861-5.752,7.106-11.504,14.042-13.253V23.204C161.522,21.456,155.996,15.817,154.36,8.936z"/>
</svg>