<!DOCTYPE svg PUBLIC "-//W3C//DTD SVG 1.1//EN" "http://www.w3.org/Graphics/SVG/1.1/DTD/svg11.dtd">
<!-- Uploaded to: SVG Repo, www.svgrepo.com, Transformed by: SVG Repo Mixer Tools -->
<svg width="800px" height="800px" viewBox="0 0 24 24" fill="none" xmlns="http://www.w3.org/2000/svg">
<g id="SVGRepo_bgCarrier" stroke-width="0"/>
<g id="SVGRepo_tracerCarrier" stroke-linecap="round" stroke-linejoin="round"/>
<g id="SVGRepo_iconCarrier"> <path opacity="0.4" d="M16.2391 3.6499H7.75906C5.28906 3.6499 3.28906 5.6599 3.28906 8.1199V17.5299C3.28906 19.9899 5.29906 21.9999 7.75906 21.9999H16.2291C18.6991 21.9999 20.6991 19.9899 20.6991 17.5299V8.1199C20.7091 5.6499 18.6991 3.6499 16.2391 3.6499Z" fill="#483d8b" style="--darkreader-inline-fill: var(--darkreader-background-483d8b, #3a316f);" data-darkreader-inline-fill=""/> <path d="M14.3498 2H9.64977C8.60977 2 7.75977 2.84 7.75977 3.88V4.82C7.75977 5.86 8.59977 6.7 9.63977 6.7H14.3498C15.3898 6.7 16.2298 5.86 16.2298 4.82V3.88C16.2398 2.84 15.3898 2 14.3498 2Z" fill="#483d8b" style="--darkreader-inline-fill: var(--darkreader-background-483d8b, #3a316f);" data-darkreader-inline-fill=""/> <path d="M15 12.9502H8C7.59 12.9502 7.25 12.6102 7.25 12.2002C7.25 11.7902 7.59 11.4502 8 11.4502H15C15.41 11.4502 15.75 11.7902 15.75 12.2002C15.75 12.6102 15.41 12.9502 15 12.9502Z" fill="#483d8b" style="--darkreader-inline-fill: var(--darkreader-background-483d8b, #3a316f);" data-darkreader-inline-fill=""/> <path d="M12.38 16.9502H8C7.59 16.9502 7.25 16.6102 7.25 16.2002C7.25 15.7902 7.59 15.4502 8 15.4502H12.38C12.79 15.4502 13.13 15.7902 13.13 16.2002C13.13 16.6102 12.79 16.9502 12.38 16.9502Z" fill="#483d8b" style="--darkreader-inline-fill: var(--darkreader-background-483d8b, #3a316f);" data-darkreader-inline-fill=""/> </g>
</svg>