<!DOCTYPE svg PUBLIC "-//W3C//DTD SVG 1.1//EN" "http://www.w3.org/Graphics/SVG/1.1/DTD/svg11.dtd">
<!-- Uploaded to: SVG Repo, www.svgrepo.com, Transformed by: SVG Repo Mixer Tools -->
<svg width="800px" height="800px" viewBox="0 0 24 24" fill="none" xmlns="http://www.w3.org/2000/svg">
<g id="SVGRepo_bgCarrier" stroke-width="0"/>
<g id="SVGRepo_tracerCarrier" stroke-linecap="round" stroke-linejoin="round"/>
<g id="SVGRepo_iconCarrier"> <path opacity="0.5" d="M6.28571 18C3.91878 18 2 16.1038 2 13.7647C2 11.4256 3.91878 9.52941 6.28571 9.52941C6.56983 9.52941 6.8475 9.55673 7.11616 9.60887M14.381 7.02721C14.9767 6.81911 15.6178 6.70588 16.2857 6.70588C16.9404 6.70588 17.5693 6.81468 18.1551 7.01498M7.11616 9.60887C6.88706 8.9978 6.7619 8.33687 6.7619 7.64706C6.7619 4.52827 9.32028 2 12.4762 2C15.4159 2 17.8371 4.19371 18.1551 7.01498M7.11616 9.60887C7.68059 9.71839 8.20528 9.9374 8.66667 10.2426M18.1551 7.01498C20.393 7.78024 22 9.88113 22 12.3529C22 15.0599 20.0726 17.3221 17.5 17.8722" stroke=" #483D8B" stroke-width="1.5" stroke-linecap="round" style="--darkreader-inline-stroke: #857ac5;" data-darkreader-inline-stroke=""/> <path d="M9.62607 17.4534L10.7744 15.8998C11.5166 14.8955 11.8878 14.3934 12.234 14.4995C12.5803 14.6056 12.5803 15.2215 12.5803 16.4532V16.5694C12.5803 17.0136 12.5803 17.2358 12.7222 17.3751L12.7297 17.3823C12.8748 17.5187 13.106 17.5187 13.5683 17.5187C14.4004 17.5187 14.8165 17.5187 14.9571 17.771C14.9594 17.7752 14.9617 17.7794 14.9639 17.7837C15.0966 18.0399 14.8557 18.3659 14.3739 19.0177L13.2256 20.5713C12.4833 21.5756 12.1122 22.0777 11.7659 21.9716C11.4197 21.8655 11.4197 21.2496 11.4197 20.0179L11.4197 19.9018C11.4197 19.4575 11.4197 19.2354 11.2778 19.096L11.2703 19.0888C11.1252 18.9524 10.894 18.9524 10.4317 18.9524C9.59958 18.9524 9.18354 18.9524 9.04294 18.7001C9.04061 18.6959 9.03835 18.6917 9.03615 18.6874C8.90342 18.4312 9.1443 18.1053 9.62607 17.4534Z" stroke=" #483D8B" stroke-width="1.5" style="--darkreader-inline-stroke: var(--darkreader-text-483d8b, #857ac5);" data-darkreader-inline-stroke=""/> </g>
</svg>