<?xml version="1.0" encoding="utf-8"?>
<!-- Uploaded to: SVG Repo, www.svgrepo.com, Generator: SVG Repo Mixer Tools -->
<svg fill="#000000" version="1.1" id="Layer_1" xmlns="http://www.w3.org/2000/svg" xmlns:xlink="http://www.w3.org/1999/xlink" 
	 width="800px" height="800px" viewBox="0 0 256 160" enable-background="new 0 0 256 160" xml:space="preserve">
<path d="M66.439,85.057c22.853,0,41.529-18.553,41.529-41.529S89.414,2,66.439,2S25.033,20.676,25.033,43.651
	C25.033,66.505,43.586,85.057,66.439,85.057z M64.145,47.051c-7.618-2.662-12.368-6.512-12.368-13.351
	c0-6.307,4.177-11.263,11.836-12.819v-6.84h5.734v6.512c4.751,0,8.191,0.983,10.73,2.334l-2.334,8.191
	c-1.884-0.778-4.956-2.089-9.174-2.089s-6.512,2.089-6.512,4.177c0,2.867,2.662,3.973,8.396,6.307
	c7.822,2.867,11.467,6.84,11.467,13.351s-3.973,11.467-12.368,13.351v6.512h-5.734v-6.307c-4.956,0-9.952-1.311-12.368-2.662
	l2.089-8.396c2.662,1.311,6.84,2.867,11.263,2.867c4.751,0,7.085-2.089,7.085-4.956C71.886,50.368,69.633,49.18,64.145,47.051z
	 M64.538,111.005c-12.775,0-23.113,10.338-23.113,23.113c0,12.775,10.338,23.113,23.113,23.113
	c12.775,0,23.113-10.338,23.113-23.113C87.651,121.343,77.314,111.005,64.538,111.005z M64.538,142.971
	c-4.853,0-8.853-4-8.853-8.853c0-4.853,4-8.853,8.853-8.853c4.853,0,8.853,4,8.853,8.853
	C73.391,138.971,69.391,142.971,64.538,142.971z M210.043,111.02c-12.775,0-23.113,10.338-23.113,23.113
	c0,12.775,10.338,23.113,23.113,23.113c12.775,0,23.113-10.338,23.113-23.113C233.156,121.358,222.818,111.02,210.043,111.02z
	 M210.043,142.986c-4.853,0-8.853-4-8.853-8.853c0-4.853,4-8.853,8.853-8.853c4.853,0,8.853,4,8.853,8.853
	C218.896,138.986,214.896,142.986,210.043,142.986z M2,120.985c0,4.481,3.519,8.114,8,8.356h22.349
	c0.924-0.242,1.68-0.914,1.848-1.755c2.521-14.456,15.129-24.482,30.341-24.482s27.82,10.026,30.341,24.482
	c0.168,0.924,0.924,1.513,1.849,1.755h3.195H131v-36H2V120.985z M252,112.341h-5v-21c0-7.396-5.52-14-13-14h-24
	c-0.504,0-1.099-0.064-1.435-0.4l-37.401-36.405c-1.681-1.681-3.726-3.111-6.163-3.195h-27v92h40c0.925,0,1.534-0.914,1.702-1.755
	c2.521-14.456,15.129-25.466,30.341-25.466s27.82,11.01,30.341,25.466c0.168,0.925,0.691,1.755,1.616,1.755h3
	c4.791,0,9-4.108,9-8.815v-6.219C254,113.382,253.009,112.341,252,112.341z M191,77.341h-41c-1.009,0-2-0.991-2-2v-26
	c0-1.009,0.991-2,2-2h13c0.504,0,1.523,0.759,1.944,1.095l27.063,25.9C193.016,75.596,192.597,77.341,191,77.341z"/>
</svg>