<!DOCTYPE svg PUBLIC "-//W3C//DTD SVG 1.1//EN" "http://www.w3.org/Graphics/SVG/1.1/DTD/svg11.dtd">
<!-- Uploaded to: SVG Repo, www.svgrepo.com, Transformed by: SVG Repo Mixer Tools -->
<svg width="800px" height="800px" viewBox="0 0 24 24" fill="none" xmlns="http://www.w3.org/2000/svg">
<g id="SVGRepo_bgCarrier" stroke-width="0"/>
<g id="SVGRepo_tracerCarrier" stroke-linecap="round" stroke-linejoin="round"/>
<g id="SVGRepo_iconCarrier"> <path d="M2 9C2 6.17157 2 4.75736 2.87868 3.87868C3.75736 3 5.17157 3 8 3H16C18.8284 3 20.2426 3 21.1213 3.87868C22 4.75736 22 6.17157 22 9V10C22 12.8284 22 14.2426 21.1213 15.1213C20.2426 16 18.8284 16 16 16H8C5.17157 16 3.75736 16 2.87868 15.1213C2 14.2426 2 12.8284 2 10V9Z" stroke="#483D8B" stroke-width="1.5" style="--darkreader-inline-stroke: #857ac5;" data-darkreader-inline-stroke=""/> <path opacity="0.5" d="M12 19V16.5M12 19L18 21M12 19L6 21" stroke="#483D8B" stroke-width="1.5" stroke-linecap="round" style="--darkreader-inline-stroke: var(--darkreader-text-483d8b, #857ac5);" data-darkreader-inline-stroke=""/> </g>
</svg>