<?xml version="1.0" encoding="UTF-8"?>
<svg xmlns="http://www.w3.org/2000/svg" id="Layer_1" data-name="Layer 1" viewBox="0 0 24 24">
  <path d="m1,23V2.5c0-.827.673-1.5,1.5-1.5h9.5v7h7v1.14c.34.061.675.135,1,.235v-2.082L12.707,0H2.5C1.121,0,0,1.122,0,2.5v21.5h12.028c-.362-.305-.696-.64-1.003-1H1ZM13,1.707l5.293,5.293h-5.293V1.707Zm4.5,9.293c-3.584,0-6.5,2.916-6.5,6.5s2.916,6.5,6.5,6.5,6.5-2.916,6.5-6.5-2.916-6.5-6.5-6.5Zm0,12c-3.032,0-5.5-2.468-5.5-5.5s2.468-5.5,5.5-5.5,5.5,2.468,5.5,5.5-2.468,5.5-5.5,5.5Zm2.697-7.49l-1.99,1.99,1.99,1.99-.707.707-1.99-1.99-1.99,1.99-.707-.707,1.99-1.99-1.99-1.99.707-.707,1.99,1.99,1.99-1.99.707.707Z"/>
</svg>
