<?xml version="1.0" encoding="UTF-8"?>
<svg xmlns="http://www.w3.org/2000/svg" id="Layer_1" data-name="Layer 1" viewBox="0 0 24 24" width="512" height="512"><path d="M19.717,6.172c.227,.188,.505,.282,.783,.282s.557-.094,.783-.281c1.015-.836,2.717-2.466,2.717-3.977,0-1.211-.897-2.196-2-2.196-.682,0-1.179,.34-1.5,.669-.321-.329-.818-.669-1.5-.669-1.103,0-2,.985-2,2.196,0,1.511,1.702,3.14,2.717,3.976Zm-.717-5.172c.671,0,1.051,.719,1.053,.724,.084,.168,.257,.273,.444,.275h.004c.187,0,.359-.106,.444-.272,.004-.007,.384-.727,1.055-.727,.552,0,1,.537,1,1.196,0,.792-.88,1.99-2.354,3.206-.086,.071-.207,.071-.293,0-1.474-1.215-2.354-2.413-2.354-3.205,0-.659,.448-1.196,1-1.196Zm4.435,7.348c.375,1.178,.565,2.407,.565,3.652,0,6.617-5.383,12-12,12-1.247,0-2.477-.19-3.652-.566-.263-.084-.408-.365-.324-.628,.084-.263,.365-.411,.629-.324,1.077,.344,2.204,.519,3.348,.519,6.065,0,11-4.935,11-11,0-1.142-.175-2.269-.519-3.348-.084-.263,.062-.544,.325-.628,.261-.085,.544,.062,.628,.325Zm-9.435,2.152c0-1.652,1.069-3.5,2.5-3.5s2.5,1.848,2.5,3.5c0,.276-.224,.5-.5,.5s-.5-.224-.5-.5c0-1.215-.771-2.5-1.5-2.5s-1.5,1.285-1.5,2.5c0,.276-.224,.5-.5,.5s-.5-.224-.5-.5Zm-8,0c0,.276-.224,.5-.5,.5s-.5-.224-.5-.5c0-1.652,1.069-3.5,2.5-3.5s2.5,1.848,2.5,3.5c0,.276-.224,.5-.5,.5s-.5-.224-.5-.5c0-1.215-.771-2.5-1.5-2.5s-1.5,1.285-1.5,2.5Zm.627,4.667c.183-.207,.498-.225,.706-.041,.021,.019,2.137,1.873,4.667,1.873s4.646-1.854,4.667-1.873c.207-.184,.522-.167,.706,.041,.184,.206,.166,.521-.04,.706-.097,.086-2.414,2.127-5.333,2.127s-5.236-2.041-5.333-2.127c-.206-.184-.224-.5-.04-.706ZM.284,14.608c-.188-.85-.284-1.727-.284-2.608C0,5.383,5.383,0,12,0c.879,0,1.757,.096,2.608,.284,.27,.06,.439,.327,.38,.596s-.315,.439-.597,.38c-.78-.173-1.585-.261-2.392-.261C5.935,1,1,5.935,1,12c0,.809,.088,1.613,.261,2.392,.06,.27-.11,.537-.38,.597-.036,.008-.073,.012-.108,.012-.229,0-.437-.159-.488-.392Zm4.716,2.392c-.682,0-1.179,.34-1.5,.669-.321-.329-.818-.669-1.5-.669-1.103,0-2,.985-2,2.196,0,1.511,1.702,3.14,2.717,3.976,.227,.188,.505,.282,.783,.282s.557-.094,.783-.281c1.015-.836,2.717-2.466,2.717-3.977,0-1.211-.897-2.196-2-2.196Zm-1.354,5.401c-.086,.071-.207,.071-.293,0-1.474-1.215-2.354-2.413-2.354-3.205,0-.659,.448-1.196,1-1.196,.671,0,1.051,.719,1.053,.724,.084,.168,.257,.273,.444,.275h.004c.187,0,.359-.106,.444-.272,.004-.007,.384-.727,1.055-.727,.552,0,1,.537,1,1.196,0,.792-.88,1.99-2.354,3.206Z"/></svg>
