<!DOCTYPE svg PUBLIC "-//W3C//DTD SVG 1.1//EN" "http://www.w3.org/Graphics/SVG/1.1/DTD/svg11.dtd">
<!-- Uploaded to: SVG Repo, www.svgrepo.com, Transformed by: SVG Repo Mixer Tools -->
<svg fill="#483d8b" width="800px" height="800px" viewBox="0 0 32 32" enable-background="new 0 0 32 32" version="1.1" xml:space="preserve" xmlns="http://www.w3.org/2000/svg" xmlns:xlink="http://www.w3.org/1999/xlink" style="--darkreader-inline-fill: var(--darkreader-background-483d8b, #3a316f);" data-darkreader-inline-fill="">
<g id="SVGRepo_bgCarrier" stroke-width="0"/>
<g id="SVGRepo_tracerCarrier" stroke-linecap="round" stroke-linejoin="round"/>
<g id="SVGRepo_iconCarrier"> <g id="play"/> <g id="stop"/> <g id="pause"/> <g id="replay"/> <g id="next"/> <g id="Layer_8"/> <g id="search"/> <g id="list"/> <g id="love"> <g> <path d="M27.615,5.598c-3.206-3.208-8.404-3.211-11.612-0.006c-3.205-3.208-8.405-3.21-11.611-0.005 C1.183,8.791,1.18,13.99,4.385,17.198l11.607,11.618l11.616-11.606C30.817,14.005,30.82,8.806,27.615,5.598z"/> <path d="M15.991,30.23L3.678,17.905c-1.739-1.741-2.696-4.055-2.695-6.515c0.002-2.46,0.962-4.772,2.702-6.511 c1.738-1.737,4.05-2.694,6.509-2.694c2.143,0,4.173,0.726,5.811,2.062c1.636-1.332,3.663-2.056,5.802-2.056 c2.462,0,4.776,0.959,6.517,2.701c1.739,1.741,2.696,4.054,2.695,6.515c-0.002,2.46-0.962,4.773-2.702,6.512L15.991,30.23z M10.193,4.185c-1.925,0-3.734,0.749-5.095,2.109c-1.363,1.362-2.114,3.172-2.116,5.098c-0.001,1.926,0.748,3.737,2.109,5.1 l10.901,10.91l10.908-10.9c1.363-1.361,2.114-3.171,2.116-5.098c0.001-1.926-0.748-3.737-2.109-5.1 c-1.363-1.363-3.175-2.114-5.103-2.114c-1.925,0-3.734,0.749-5.096,2.109l-0.708,0.707l-0.706-0.707 C13.934,4.936,12.121,4.185,10.193,4.185z"/> </g> </g> <g id="menu"/> <g id="add"/> <g id="headset"/> <g id="random"/> <g id="music"/> <g id="setting"/> <g id="Layer_17"/> <g id="Layer_18"/> <g id="Layer_19"/> <g id="Layer_20"/> <g id="Layer_21"/> <g id="Layer_22"/> <g id="Layer_23"/> <g id="Layer_24"/> <g id="Layer_25"/> <g id="Layer_26"/> </g>
</svg>