<svg version="1.1" id="Layer_1" xmlns="http://www.w3.org/2000/svg" xmlns:xlink="http://www.w3.org/1999/xlink" x="0px" y="0px"
	 width="100%" viewBox="0 0 103 172" enable-background="new 0 0 103 172" xml:space="preserve">
<path fill="#000000" opacity="1.000000" stroke="none" 
	d="
M62.000000,173.000000 
	C41.351677,173.000000 21.203358,173.000000 1.027518,173.000000 
	C1.027518,115.737175 1.027518,58.474342 1.027518,1.105751 
	C35.231312,1.105751 69.463058,1.105751 103.847397,1.105751 
	C103.847397,58.332996 103.847397,115.666466 103.847397,173.000000 
	C90.141411,173.000000 76.320709,173.000000 62.000000,173.000000 
M35.618366,73.708984 
	C35.723301,73.117310 35.828239,72.525635 35.968227,71.550552 
	C35.968227,71.550552 36.003864,71.167198 36.602127,70.898911 
	C37.425240,69.631638 38.248348,68.364365 39.451286,66.894844 
	C39.702347,66.731277 39.861549,66.503555 40.681335,66.109924 
	C42.828640,66.182045 44.975941,66.254166 47.375355,66.847488 
	C47.993576,67.569740 48.611794,68.291992 49.117970,69.741776 
	C48.728813,71.147163 48.339657,72.552551 47.286808,74.139153 
	C44.842445,77.740807 42.398087,81.342468 39.548618,85.434593 
	C39.057922,86.373138 38.567223,87.311691 37.426151,88.488350 
	C35.578087,91.690376 33.730019,94.892403 31.881950,98.094429 
	C32.469650,98.457756 33.057350,98.821091 33.645054,99.184418 
	C35.829128,96.157234 38.013206,93.130043 40.727295,89.706451 
	C43.859257,85.843597 46.991219,81.980743 50.684505,77.778885 
	C52.491936,75.908203 54.299362,74.037521 56.831947,72.130150 
	C59.230213,72.594658 61.628479,73.059166 63.974770,74.097282 
	C64.654999,74.706734 65.335220,75.316185 66.037674,76.714478 
	C66.045647,77.765015 66.053619,78.815559 66.035950,80.664673 
	C66.031372,81.461220 66.026787,82.257774 66.012367,83.807404 
	C66.021622,84.560280 66.030876,85.313156 66.207573,86.130135 
	C66.207573,86.130135 66.235191,86.307281 65.946999,86.252205 
	C65.946999,86.252205 65.741959,86.554031 65.741959,86.554031 
	C65.741959,86.554031 66.045769,86.781914 66.168816,87.541824 
	C67.700882,88.084587 69.202477,88.945663 70.772118,89.095932 
	C73.160461,89.324608 75.595970,89.060684 78.005630,89.451599 
	C78.005630,89.451599 77.966995,89.895607 77.810883,89.885521 
	C77.810883,89.885521 77.800491,90.041611 77.077667,90.234970 
	C77.120369,90.789284 77.163063,91.343590 77.205765,91.897896 
	C77.639313,91.614632 78.072868,91.331360 78.687706,91.605835 
	C74.010040,97.722908 67.204582,97.699852 60.556026,97.468628 
	C59.364655,97.427200 57.791576,95.011826 57.232788,93.401703 
	C56.480316,91.233459 56.540947,88.783028 56.234894,86.310669 
	C54.991066,86.584602 54.397629,86.537346 54.081139,86.810722 
	C42.565067,96.757538 34.741196,109.691742 25.995697,121.863464 
	C25.433077,122.646492 26.549395,124.635849 27.129429,126.418167 
	C27.309824,126.658737 27.548368,126.803185 27.989771,127.548248 
	C29.371279,129.584641 30.752789,131.621033 31.355759,133.983810 
	C28.760729,134.495895 26.165701,135.007980 23.510567,135.531921 
	C30.162533,144.375488 30.578829,144.608414 33.996830,142.501144 
	C33.996830,139.996460 33.996830,138.030396 34.011284,135.996536 
	C34.011284,135.996536 33.942978,135.984787 34.124138,136.520386 
	C34.464291,136.610168 34.804443,136.699936 35.675606,137.248062 
	C38.154545,140.373367 40.633484,143.498688 42.333660,146.903610 
	C38.895115,145.440125 35.407143,143.273056 32.044407,147.951920 
	C34.152031,150.899719 36.409088,153.833572 38.420967,156.926895 
	C40.927040,160.780045 44.009480,162.645294 48.899208,162.119492 
	C54.083633,161.561966 59.367725,161.931229 64.608292,161.895737 
	C64.877426,161.038422 65.146561,160.181107 65.415703,159.323807 
	C61.272663,156.122528 57.129627,152.921249 53.409409,149.230316 
	C54.590397,147.289734 55.771385,145.349167 57.806503,143.096664 
	C58.409874,142.932739 59.291435,142.425323 59.575619,142.655487 
	C65.475128,147.433563 72.346268,144.173706 78.811920,145.414230 
	C77.637222,143.420029 76.044502,142.316574 74.784714,140.914078 
	C72.181770,138.016251 69.756203,134.959091 67.628487,131.809158 
	C67.855766,131.636032 67.985909,131.407562 68.615906,130.824570 
	C69.126572,129.894424 69.637238,128.964264 70.730194,127.717064 
	C79.689407,117.808372 85.813339,106.307777 90.038101,93.067963 
	C90.292694,92.047325 90.547287,91.026680 90.879066,89.209770 
	C90.836861,88.145950 90.794655,87.082123 90.901527,85.178238 
	C90.527222,82.834435 90.152916,80.490639 89.846436,77.385513 
	C84.820808,61.650562 75.579643,49.703926 58.900753,45.705215 
	C48.709240,43.261833 37.851555,42.995728 28.612362,48.558186 
	C14.541963,57.029278 5.002600,73.634048 9.230059,91.563675 
	C10.767362,98.083740 13.468218,104.329468 15.959645,111.644096 
	C21.843834,100.104797 26.932596,90.125381 32.603344,79.737778 
	C32.788406,78.823677 32.973465,77.909569 33.523788,76.787094 
	C33.749416,76.609344 33.920517,76.389206 34.506207,75.749809 
	C34.678085,75.185005 34.849960,74.620201 35.079479,74.059677 
	C35.079479,74.059677 35.068401,74.002945 35.618366,73.708984 
M58.512161,76.982536 
	C58.946087,76.728897 59.380009,76.475250 59.813934,76.221611 
	C59.667702,76.003952 59.521469,75.786293 59.375237,75.568634 
	C58.882324,76.018250 58.389408,76.467865 57.487247,77.063347 
	C57.134968,77.376633 56.782684,77.689919 56.430405,78.003204 
	C56.598446,78.160095 56.766491,78.316986 56.934532,78.473877 
	C57.305832,78.009842 57.677132,77.545799 58.512161,76.982536 
M71.479980,160.775330 
	C79.072006,160.805832 86.739693,161.995880 95.049660,159.550064 
	C88.930717,155.106934 85.258301,148.282867 76.877586,149.495712 
	C74.899559,149.781982 72.801399,149.120697 70.754417,149.073883 
	C67.210434,148.992859 63.663261,149.051407 60.117432,149.051407 
	C59.998253,149.571747 59.879074,150.092087 59.759899,150.612427 
	C63.458488,153.822021 67.157082,157.031616 71.479980,160.775330 
M48.544056,84.909027 
	C48.775871,85.244537 49.007690,85.580040 49.239506,85.915550 
	C49.462177,85.423340 49.684853,84.931129 49.907528,84.438919 
	C49.504669,84.479599 49.101814,84.520271 48.544056,84.909027 
M21.778664,110.580475 
	C21.927265,110.923203 22.075867,111.265930 22.224466,111.608658 
	C22.345051,111.525200 22.578531,111.384659 22.569475,111.366753 
	C22.403429,111.038345 22.208326,110.724640 21.778664,110.580475 
M28.446192,109.839172 
	C28.485483,110.041481 28.524775,110.243782 28.564066,110.446091 
	C28.683315,110.407761 28.802567,110.369438 28.921818,110.331116 
	C28.834799,110.144073 28.747778,109.957031 28.446192,109.839172 
M32.646378,105.799103 
	C32.748215,105.612137 32.850052,105.425171 32.951889,105.238205 
	C32.800098,105.379768 32.648304,105.521324 32.646378,105.799103 
z"/>
<path fill="#305907" opacity="1.000000" stroke="none" 
	d="
M32.021358,80.145966 
	C26.932596,90.125381 21.843834,100.104797 15.959645,111.644096 
	C13.468218,104.329468 10.767362,98.083740 9.230059,91.563675 
	C5.002600,73.634048 14.541963,57.029278 28.612362,48.558186 
	C37.851555,42.995728 48.709240,43.261833 58.900753,45.705215 
	C75.579643,49.703926 84.820808,61.650562 89.410858,77.782227 
	C87.051025,78.491531 85.068420,78.607109 83.214218,79.156227 
	C78.857094,80.446617 74.561317,81.944176 70.196503,82.915680 
	C69.241585,79.995018 71.756683,75.352196 66.015450,75.925629 
	C65.335220,75.316185 64.654999,74.706734 64.192818,73.541000 
	C65.310310,71.894592 66.209747,70.804466 67.073349,69.757790 
	C62.876686,64.676277 57.333817,64.551598 51.839985,69.187195 
	C50.719627,69.119408 49.974819,69.066826 49.230015,69.014244 
	C48.611794,68.291992 47.993576,67.569740 47.413513,66.325562 
	C47.894630,65.382805 48.337585,64.961967 48.976204,64.668816 
	C49.100117,63.866764 49.028370,62.937038 48.660065,61.792046 
	C44.490273,59.076530 40.740978,59.705227 36.738743,62.115993 
	C34.985386,63.775936 33.551945,65.344452 31.925262,67.211258 
	C28.026218,74.611420 24.320414,81.713280 20.614609,88.815147 
	C21.248905,89.163681 21.883200,89.512215 22.517496,89.860741 
	C24.331390,87.079941 25.964502,84.151329 28.053888,81.595757 
	C28.820539,80.658051 30.667297,80.603424 32.021358,80.145966 
z"/>
<path fill="#5FB212" opacity="1.000000" stroke="none" 
	d="
M43.112423,146.623993 
	C40.633484,143.498688 38.154545,140.373367 35.234547,136.847321 
	C34.547169,136.224106 34.263668,136.070175 33.942978,135.984787 
	C33.942978,135.984787 34.011284,135.996536 33.988842,135.703049 
	C33.355701,134.825516 32.745003,134.241470 32.134300,133.657425 
	C30.752789,131.621033 29.371279,129.584641 28.198456,127.022888 
	C31.547756,121.995888 34.688374,117.494232 37.932480,112.846458 
	C38.035969,112.700333 38.159389,112.364151 38.448311,112.191681 
	C40.005550,110.347137 41.273869,108.675072 42.782703,106.751236 
	C44.669792,104.263779 46.316368,102.028091 48.220947,99.621605 
	C51.816498,95.418884 53.625565,99.737152 56.179916,100.934418 
	C56.335171,101.036804 56.686871,101.157845 56.933178,101.417130 
	C58.776169,101.997513 60.372856,102.318619 62.371933,102.698402 
	C63.854542,102.718887 64.934761,102.680679 66.416069,102.710655 
	C73.416580,102.645126 78.856949,100.035080 83.424667,95.058983 
	C83.637718,95.012566 84.039291,94.842476 84.404144,94.789093 
	C86.466682,94.371147 88.164368,94.006592 89.862061,93.642029 
	C85.813339,106.307777 79.689407,117.808372 70.162872,128.046387 
	C69.070007,129.291733 68.544456,130.207764 68.018906,131.123779 
	C67.985909,131.407562 67.855766,131.636032 67.141724,132.084473 
	C65.105637,134.622833 63.556313,136.885864 61.907166,139.385101 
	C61.684765,139.740509 61.562191,139.859680 61.160278,140.120102 
	C59.571423,141.310425 58.261898,142.359512 56.952377,143.408585 
	C55.771385,145.349167 54.590397,147.289734 52.905369,149.541412 
	C49.305027,148.776321 46.208725,147.700150 43.112423,146.623993 
z"/>
<path fill="#10680B" opacity="1.000000" stroke="none" 
	d="
M56.686871,101.157852 
	C56.686871,101.157845 56.335171,101.036804 56.129547,100.590767 
	C54.562988,98.372444 53.202057,96.600151 51.841122,94.827866 
	C50.548397,96.482712 49.255672,98.137558 47.962948,99.792404 
	C46.316368,102.028091 44.669792,104.263779 42.507957,106.873581 
	C40.714924,108.953186 39.437157,110.658669 38.159386,112.364151 
	C38.159389,112.364151 38.035969,112.700333 37.626480,112.960464 
	C33.772888,117.501747 30.328793,121.782890 26.884697,126.064041 
	C26.549395,124.635849 25.433077,122.646492 25.995697,121.863464 
	C34.741196,109.691742 42.565067,96.757538 54.081139,86.810722 
	C54.397629,86.537346 54.991066,86.584602 56.234894,86.310669 
	C56.540947,88.783028 56.480316,91.233459 57.232788,93.401703 
	C57.791576,95.011826 59.364655,97.427200 60.556026,97.468628 
	C67.204582,97.699852 74.010040,97.722908 78.537415,90.993393 
	C78.191582,90.267845 77.996040,90.154732 77.800491,90.041611 
	C77.800491,90.041611 77.810883,89.885521 78.238770,90.069206 
	C79.187851,90.215431 79.709061,90.177979 80.568787,90.231400 
	C81.461929,89.861610 82.016556,89.400955 82.721115,88.672867 
	C82.988770,88.238335 83.106491,88.071243 83.488380,87.818649 
	C83.577637,87.397125 83.402718,87.061111 83.314331,86.750046 
	C83.400864,86.775009 83.457359,86.603981 83.441895,86.392288 
	C83.240456,85.964203 83.117638,85.716537 83.445007,85.404358 
	C86.138840,85.586845 88.445648,85.802574 90.752449,86.018303 
	C90.794655,87.082123 90.836861,88.145950 90.516083,89.678635 
	C88.115166,91.712494 86.077232,93.277489 84.039291,94.842476 
	C84.039291,94.842476 83.637718,95.012566 83.035751,95.058846 
	C76.960854,97.617577 71.487915,100.130028 66.014977,102.642471 
	C64.934761,102.680679 63.854542,102.718887 62.140732,102.455818 
	C59.900379,101.822311 58.293625,101.490082 56.686871,101.157852 
z"/>
<path fill="#91C052" opacity="1.000000" stroke="none" 
	d="
M42.723042,146.763794 
	C46.208725,147.700150 49.305027,148.776321 52.693962,149.786224 
	C57.129627,152.921249 61.272663,156.122528 65.415703,159.323807 
	C65.146561,160.181107 64.877426,161.038422 64.608292,161.895737 
	C59.367725,161.931229 54.083633,161.561966 48.899208,162.119492 
	C44.009480,162.645294 40.927040,160.780045 38.420967,156.926895 
	C36.409088,153.833572 34.152031,150.899719 32.044407,147.951920 
	C35.407143,143.273056 38.895115,145.440125 42.723042,146.763794 
z"/>
<path fill="#639D48" opacity="1.000000" stroke="none" 
	d="
M71.167831,160.508270 
	C67.157082,157.031616 63.458488,153.822021 59.759899,150.612427 
	C59.879074,150.092087 59.998253,149.571747 60.117432,149.051407 
	C63.663261,149.051407 67.210434,148.992859 70.754417,149.073883 
	C72.801399,149.120697 74.899559,149.781982 76.877586,149.495712 
	C85.258301,148.282867 88.930717,155.106934 95.049660,159.550064 
	C86.739693,161.995880 79.072006,160.805832 71.167831,160.508270 
z"/>
<path fill="#748F57" opacity="1.000000" stroke="none" 
	d="
M90.826988,85.598267 
	C88.445648,85.802574 86.138840,85.586845 83.123871,85.188011 
	C81.264946,86.193436 80.114182,87.381973 78.852959,88.722397 
	C78.511894,88.990791 78.268211,89.034683 78.011444,89.005959 
	C75.595970,89.060684 73.160461,89.324608 70.772118,89.095932 
	C69.202477,88.945663 67.700882,88.084587 66.212784,87.066399 
	C66.256744,86.590973 66.235191,86.307281 66.235191,86.307281 
	C66.235191,86.307281 66.207573,86.130135 66.456436,86.119781 
	C67.883774,85.192253 69.062241,84.275078 70.240707,83.357895 
	C74.561317,81.944176 78.857094,80.446617 83.214218,79.156227 
	C85.068420,78.607109 87.051025,78.491531 89.376938,78.162888 
	C90.152916,80.490639 90.527222,82.834435 90.826988,85.598267 
z"/>
<path fill="#639849" opacity="1.000000" stroke="none" 
	d="
M57.379440,143.252625 
	C58.261898,142.359512 59.571423,141.310425 61.298172,140.503174 
	C62.349213,140.146088 62.983025,139.547150 63.616837,138.948227 
	C63.080215,139.015106 62.543602,139.082001 62.006989,139.148880 
	C63.556313,136.885864 65.105637,134.622833 66.956314,132.163635 
	C69.756203,134.959091 72.181770,138.016251 74.784714,140.914078 
	C76.044502,142.316574 77.637222,143.420029 78.811920,145.414230 
	C72.346268,144.173706 65.475128,147.433563 59.575619,142.655487 
	C59.291435,142.425323 58.409874,142.932739 57.379440,143.252625 
z"/>
<path fill="#3A6113" opacity="1.000000" stroke="none" 
	d="
M32.312351,79.941872 
	C30.667297,80.603424 28.820539,80.658051 28.053888,81.595757 
	C25.964502,84.151329 24.331390,87.079941 22.517496,89.860741 
	C21.883200,89.512215 21.248905,89.163681 20.614609,88.815147 
	C24.320414,81.713280 28.026218,74.611420 32.353931,67.230637 
	C35.007710,67.000183 37.039585,67.048637 39.071457,67.097084 
	C38.248348,68.364365 37.425240,69.631638 36.053223,70.896637 
	C31.732395,71.778458 30.467974,73.626648 33.158527,76.995468 
	C32.973465,77.909569 32.788406,78.823677 32.312351,79.941872 
z"/>
<path fill="#748F53" opacity="1.000000" stroke="none" 
	d="
M52.215538,69.202393 
	C57.333817,64.551598 62.876686,64.676277 67.073349,69.757790 
	C66.209747,70.804466 65.310310,71.894592 64.218803,73.254196 
	C61.628479,73.059166 59.230213,72.594658 56.174904,72.010994 
	C54.417084,70.995354 53.316311,70.098877 52.215538,69.202393 
z"/>
<path fill="#93BC5A" opacity="1.000000" stroke="none" 
	d="
M31.745029,133.820618 
	C32.745003,134.241470 33.355701,134.825516 33.981613,135.736938 
	C33.996830,138.030396 33.996830,139.996460 33.996830,142.501144 
	C30.578829,144.608414 30.162533,144.375488 23.510567,135.531921 
	C26.165701,135.007980 28.760729,134.495895 31.745029,133.820618 
z"/>
<path fill="#748E54" opacity="1.000000" stroke="none" 
	d="
M37.058655,62.024570 
	C40.740978,59.705227 44.490273,59.076530 48.620728,62.109077 
	C48.845482,63.274628 48.813011,63.907883 48.780544,64.541138 
	C48.337585,64.961967 47.894630,65.382805 47.287460,66.064964 
	C44.975941,66.254166 42.828640,66.182045 40.079521,65.924530 
	C38.671356,64.500946 37.865005,63.262760 37.058655,62.024570 
z"/>
<path fill="#415A24" opacity="1.000000" stroke="none" 
	d="
M50.123177,78.117889 
	C46.991219,81.980743 43.859257,85.843597 40.226719,89.746231 
	C39.176270,89.274094 38.626400,88.762161 38.076523,88.250237 
	C38.567223,87.311691 39.057922,86.373138 40.064789,85.067261 
	C43.092339,82.119965 45.603718,79.540009 48.364777,77.107498 
	C49.117367,77.542603 49.620270,77.830246 50.123177,78.117889 
z"/>
<path fill="#546F35" opacity="1.000000" stroke="none" 
	d="
M50.403839,77.948395 
	C49.620270,77.830246 49.117367,77.542603 48.390137,76.730606 
	C48.094040,75.456818 48.022270,74.707375 47.950500,73.957939 
	C48.339657,72.552551 48.728813,71.147163 49.173992,69.378006 
	C49.974819,69.066826 50.719627,69.119408 51.839985,69.187195 
	C53.316311,70.098877 54.417084,70.995354 55.812325,72.029343 
	C54.299362,74.037521 52.491936,75.908203 50.403839,77.948395 
z"/>
<path fill="#0F2102" opacity="1.000000" stroke="none" 
	d="
M70.196503,82.915680 
	C69.062241,84.275078 67.883774,85.192253 66.372719,86.087730 
	C66.030876,85.313156 66.021622,84.560280 66.244476,83.285873 
	C66.338249,81.798256 66.199921,80.832176 66.061592,79.866096 
	C66.053619,78.815559 66.045647,77.765015 66.026566,76.320053 
	C71.756683,75.352196 69.241585,79.995018 70.196503,82.915680 
z"/>
<path fill="#18710B" opacity="1.000000" stroke="none" 
	d="
M27.007061,126.241104 
	C30.328793,121.782890 33.772888,117.501747 37.522987,113.106598 
	C34.688374,117.494232 31.547756,121.995888 28.126101,126.674522 
	C27.548368,126.803185 27.309824,126.658737 27.007061,126.241104 
z"/>
<path fill="#48592C" opacity="1.000000" stroke="none" 
	d="
M37.751339,88.369293 
	C38.626400,88.762161 39.176270,89.274094 39.961716,89.944443 
	C38.013206,93.130043 35.829128,96.157234 33.645054,99.184418 
	C33.057350,98.821091 32.469650,98.457756 31.881950,98.094429 
	C33.730019,94.892403 35.578087,91.690376 37.751339,88.369293 
z"/>
<path fill="#142109" opacity="1.000000" stroke="none" 
	d="
M47.618652,74.048546 
	C48.022270,74.707375 48.094040,75.456818 48.140453,76.583145 
	C45.603718,79.540009 43.092339,82.119965 40.267342,84.822021 
	C42.398087,81.342468 44.842445,77.740807 47.618652,74.048546 
z"/>
<path fill="#466B1F" opacity="1.000000" stroke="none" 
	d="
M36.738743,62.115993 
	C37.865005,63.262760 38.671356,64.500946 39.703300,65.975410 
	C39.861549,66.503555 39.702347,66.731277 39.261372,66.995964 
	C37.039585,67.048637 35.007710,67.000183 32.547173,66.932350 
	C33.551945,65.344452 34.985386,63.775936 36.738743,62.115993 
z"/>
<path fill="#305907" opacity="1.000000" stroke="none" 
	d="
M33.341156,76.891281 
	C30.467974,73.626648 31.732395,71.778458 35.754089,71.030785 
	C36.003864,71.167198 35.968227,71.550552 35.774570,71.968582 
	C35.410076,72.925392 35.239239,73.464172 35.068401,74.002945 
	C35.068401,74.002945 35.079479,74.059677 34.874359,74.287827 
	C34.458523,75.052879 34.247807,75.589783 34.037094,76.126678 
	C33.920517,76.389206 33.749416,76.609344 33.341156,76.891281 
z"/>
<path fill="#18710B" opacity="1.000000" stroke="none" 
	d="
M84.404144,94.789093 
	C86.077232,93.277489 88.115166,91.712494 90.477493,90.076767 
	C90.547287,91.026680 90.292694,92.047325 89.950081,93.354996 
	C88.164368,94.006592 86.466682,94.371147 84.404144,94.789093 
z"/>
<path fill="#000000" opacity="1.000000" stroke="none" 
	d="
M48.621506,84.734985 
	C49.101814,84.520271 49.504669,84.479599 49.907524,84.438919 
	C49.684853,84.931129 49.462177,85.423340 49.239510,85.915550 
	C49.007690,85.580040 48.775871,85.244537 48.621506,84.734985 
z"/>
<path fill="#000000" opacity="1.000000" stroke="none" 
	d="
M57.896492,76.917488 
	C58.389408,76.467865 58.882324,76.018250 59.375237,75.568634 
	C59.521469,75.786293 59.667702,76.003952 59.813934,76.221611 
	C59.380009,76.475250 58.946087,76.728897 58.244148,76.989380 
	C57.976135,76.996223 57.896496,76.917488 57.896492,76.917488 
z"/>
<path fill="#000000" opacity="1.000000" stroke="none" 
	d="
M66.048767,80.265381 
	C66.199921,80.832176 66.338249,81.798256 66.249390,82.909332 
	C66.026787,82.257774 66.031372,81.461220 66.048767,80.265381 
z"/>
<path fill="#000000" opacity="1.000000" stroke="none" 
	d="
M21.899021,110.494141 
	C22.208326,110.724640 22.403429,111.038345 22.569475,111.366753 
	C22.578531,111.384659 22.345051,111.525200 22.224468,111.608658 
	C22.075867,111.265930 21.927265,110.923203 21.899021,110.494141 
z"/>
<path fill="#000000" opacity="1.000000" stroke="none" 
	d="
M58.012283,77.038986 
	C57.677132,77.545799 57.305832,78.009842 56.934532,78.473877 
	C56.766491,78.316986 56.598446,78.160095 56.430405,78.003204 
	C56.782684,77.689919 57.134968,77.376633 57.691872,76.990417 
	C57.896496,76.917488 57.976135,76.996223 58.012283,77.038986 
z"/>
<path fill="#000000" opacity="1.000000" stroke="none" 
	d="
M28.553474,109.804581 
	C28.747778,109.957031 28.834799,110.144073 28.921818,110.331116 
	C28.802567,110.369438 28.683315,110.407761 28.564066,110.446091 
	C28.524775,110.243782 28.485483,110.041481 28.553474,109.804581 
z"/>
<path fill="#4E643D" opacity="1.000000" stroke="none" 
	d="
M78.008537,89.228775 
	C78.268211,89.034683 78.511894,88.990791 79.188026,88.460098 
	C80.437202,87.771851 81.240837,87.497795 82.042740,87.646088 
	C82.021339,88.349312 82.001686,88.630180 81.626572,88.921509 
	C80.924164,89.334816 80.577209,89.737671 80.230263,90.140518 
	C79.709061,90.177979 79.187851,90.215431 78.316818,90.074249 
	C77.966995,89.895607 78.005630,89.451599 78.008537,89.228775 
z"/>
<path fill="#000000" opacity="1.000000" stroke="none" 
	d="
M32.571442,105.730995 
	C32.648304,105.521324 32.800098,105.379768 32.951889,105.238205 
	C32.850052,105.425171 32.748215,105.612137 32.571442,105.730995 
z"/>
<path fill="#639849" opacity="1.000000" stroke="none" 
	d="
M68.317406,130.974182 
	C68.544456,130.207764 69.070007,129.291733 69.871727,128.204926 
	C69.637238,128.964264 69.126572,129.894424 68.317406,130.974182 
z"/>
<path fill="#3A6113" opacity="1.000000" stroke="none" 
	d="
M34.271652,75.938248 
	C34.247807,75.589783 34.458523,75.052879 34.845535,74.285690 
	C34.849960,74.620201 34.678085,75.185005 34.271652,75.938248 
z"/>
<path fill="#4E643D" opacity="1.000000" stroke="none" 
	d="
M77.439079,90.138290 
	C77.996040,90.154732 78.191582,90.267845 78.446777,90.714523 
	C78.072868,91.331360 77.639313,91.614632 77.205765,91.897903 
	C77.163063,91.343590 77.120369,90.789284 77.439079,90.138290 
z"/>
<path fill="#3A6113" opacity="1.000000" stroke="none" 
	d="
M35.343384,73.855965 
	C35.239239,73.464172 35.410076,72.925392 35.757046,72.160294 
	C35.828239,72.525635 35.723301,73.117310 35.343384,73.855965 
z"/>
<path fill="#305907" opacity="1.000000" stroke="none" 
	d="
M66.091095,86.279739 
	C66.235191,86.307281 66.256744,86.590973 66.151260,86.686447 
	C66.045769,86.781914 65.741959,86.554031 65.741959,86.554031 
	C65.741959,86.554031 65.946999,86.252205 66.091095,86.279739 
z"/>
<path fill="#93BC5A" opacity="1.000000" stroke="none" 
	d="
M34.033558,136.252594 
	C34.263668,136.070175 34.547169,136.224106 34.969040,136.618134 
	C34.804443,136.699936 34.464291,136.610168 34.033558,136.252594 
z"/>
<path fill="#466B1F" opacity="1.000000" stroke="none" 
	d="
M48.976204,64.668816 
	C48.813011,63.907883 48.845482,63.274628 48.917286,62.324341 
	C49.028370,62.937038 49.100117,63.866764 48.976204,64.668816 
z"/>
<path fill="#18710B" opacity="1.000000" stroke="none" 
	d="
M66.416069,102.710648 
	C71.487915,100.130028 76.960854,97.617577 82.822701,95.105263 
	C78.856949,100.035080 73.416580,102.645126 66.416069,102.710648 
z"/>
<path fill="#18710B" opacity="1.000000" stroke="none" 
	d="
M48.220947,99.621605 
	C49.255672,98.137558 50.548397,96.482712 51.841122,94.827866 
	C53.202057,96.600151 54.562988,98.372444 55.974297,100.488388 
	C53.625565,99.737152 51.816498,95.418884 48.220947,99.621605 
z"/>
<path fill="#18710B" opacity="1.000000" stroke="none" 
	d="
M38.448311,112.191681 
	C39.437157,110.658669 40.714924,108.953186 42.267441,107.125359 
	C41.273869,108.675072 40.005550,110.347137 38.448311,112.191681 
z"/>
<path fill="#18710B" opacity="1.000000" stroke="none" 
	d="
M56.933178,101.417130 
	C58.293625,101.490082 59.900379,101.822311 61.738338,102.397133 
	C60.372856,102.318619 58.776169,101.997513 56.933178,101.417130 
z"/>
<path fill="#000000" opacity="1.000000" stroke="none" 
	d="
M61.907162,139.385101 
	C62.543602,139.082001 63.080215,139.015106 63.616837,138.948227 
	C62.983025,139.547150 62.349213,140.146088 61.577511,140.361938 
	C61.562191,139.859680 61.684765,139.740509 61.907162,139.385101 
z"/>
<path fill="#C0DEB2" opacity="1.000000" stroke="none" 
	d="
M82.044479,87.223732 
	C81.240837,87.497795 80.437202,87.771851 79.298492,88.308212 
	C80.114182,87.381973 81.264946,86.193436 82.736847,85.221237 
	C83.117638,85.716537 83.240456,85.964203 83.219360,86.526886 
	C82.689690,86.990036 82.367081,87.106880 82.044479,87.223732 
z"/>
<path fill="#C2F1C2" opacity="1.000000" stroke="none" 
	d="
M80.568787,90.231392 
	C80.577209,89.737671 80.924164,89.334816 81.770203,88.998947 
	C82.269295,89.065926 82.571182,88.940292 82.571182,88.940292 
	C82.016556,89.400955 81.461929,89.861610 80.568787,90.231392 
z"/>
<path fill="#79926C" opacity="1.000000" stroke="none" 
	d="
M82.721115,88.672867 
	C82.571182,88.940292 82.269295,89.065926 82.125656,88.988487 
	C82.001686,88.630180 82.021339,88.349312 82.042740,87.646088 
	C82.367081,87.106880 82.689690,86.990036 83.234825,86.738586 
	C83.457359,86.603981 83.400864,86.775009 83.267563,87.044998 
	C83.164238,87.511368 83.194221,87.707764 83.224205,87.904160 
	C83.106491,88.071243 82.988770,88.238335 82.721115,88.672867 
z"/>
<path fill="#C0DEB2" opacity="1.000000" stroke="none" 
	d="
M83.488380,87.818649 
	C83.194221,87.707764 83.164238,87.511368 83.181030,87.020035 
	C83.402718,87.061111 83.577637,87.397125 83.488380,87.818649 
z"/>
</svg>