<?xml version="1.0" encoding="utf-8"?><!-- Uploaded to: SVG Repo, www.svgrepo.com, Generator: SVG Repo Mixer Tools -->
<svg width="800px" height="800px" viewBox="0 0 24 24" fill="none" xmlns="http://www.w3.org/2000/svg">
<path d="M18 5H6C5.5286 5 5.29289 5 5.14645 5.14645C5 5.29289 5 5.5286 5 6V7.96482C5 8.2268 5 8.35779 5.05916 8.46834C5.11833 8.57888 5.22732 8.65154 5.4453 8.79687L8.4688 10.8125C9.34073 11.3938 9.7767 11.6845 10.0133 12.1267C10.25 12.5688 10.25 13.0928 10.25 14.1407V19L13.75 17.25V14.1407C13.75 13.0928 13.75 12.5688 13.9867 12.1267C14.2233 11.6845 14.6593 11.3938 15.5312 10.8125L18.5547 8.79687C18.7727 8.65154 18.8817 8.57888 18.9408 8.46834C19 8.35779 19 8.2268 19 7.96482V6C19 5.5286 19 5.29289 18.8536 5.14645C18.7071 5 18.4714 5 18 5Z" stroke="#464455" stroke-linecap="round" stroke-linejoin="round"/>
</svg>