<!DOCTYPE svg PUBLIC "-//W3C//DTD SVG 1.1//EN" "http://www.w3.org/Graphics/SVG/1.1/DTD/svg11.dtd">
<!-- Uploaded to: SVG Repo, www.svgrepo.com, Transformed by: SVG Repo Mixer Tools -->
<svg width="800px" height="800px" viewBox="0 0 24 24" fill="none" xmlns="http://www.w3.org/2000/svg">
<g id="SVGRepo_bgCarrier" stroke-width="0"/>
<g id="SVGRepo_tracerCarrier" stroke-linecap="round" stroke-linejoin="round"/>
<g id="SVGRepo_iconCarrier"> <path d="M13 3H8.2C7.0799 3 6.51984 3 6.09202 3.21799C5.71569 3.40973 5.40973 3.71569 5.21799 4.09202C5 4.51984 5 5.0799 5 6.2V17.8C5 18.9201 5 19.4802 5.21799 19.908C5.40973 20.2843 5.71569 20.5903 6.09202 20.782C6.51984 21 7.0799 21 8.2 21H11M13 3L19 9M13 3V7.4C13 7.96005 13 8.24008 13.109 8.45399C13.2049 8.64215 13.3578 8.79513 13.546 8.89101C13.7599 9 14.0399 9 14.6 9H19M19 9V11M17.4976 15.7119C16.7978 14.9328 15.6309 14.7232 14.7541 15.4367C13.8774 16.1501 13.7539 17.343 14.4425 18.1868C14.8312 18.6632 15.7548 19.4983 16.4854 20.1353C16.8319 20.4374 17.0051 20.5885 17.2147 20.6503C17.3934 20.703 17.6018 20.703 17.7805 20.6503C17.9901 20.5885 18.1633 20.4374 18.5098 20.1353C19.2404 19.4983 20.164 18.6632 20.5527 18.1868C21.2413 17.343 21.1329 16.1426 20.2411 15.4367C19.3492 14.7307 18.1974 14.9328 17.4976 15.7119Z" stroke="#483d8b" stroke-width="2" stroke-linecap="round" stroke-linejoin="round" style="--darkreader-inline-stroke: var(--darkreader-text-483d8b, #857ac5);" data-darkreader-inline-stroke=""/> </g>
</svg>