<!DOCTYPE svg PUBLIC "-//W3C//DTD SVG 1.1//EN" "http://www.w3.org/Graphics/SVG/1.1/DTD/svg11.dtd">
<!-- Uploaded to: SVG Repo, www.svgrepo.com, Transformed by: SVG Repo Mixer Tools -->
<svg width="800px" height="800px" viewBox="0 0 24 24" fill="none" xmlns="http://www.w3.org/2000/svg">
<g id="SVGRepo_bgCarrier" stroke-width="0"/>
<g id="SVGRepo_tracerCarrier" stroke-linecap="round" stroke-linejoin="round"/>
<g id="SVGRepo_iconCarrier"> <path opacity="0.5" d="M22 12C22 17.5228 17.5228 22 12 22C6.47715 22 2 17.5228 2 12C2 6.47715 6.47715 2 12 2C17.5228 2 22 6.47715 22 12Z" fill=" #483D8B" style="--darkreader-inline-fill: #3a316f;" data-darkreader-inline-fill=""/> <path d="M12 17.75C12.4142 17.75 12.75 17.4142 12.75 17V11C12.75 10.5858 12.4142 10.25 12 10.25C11.5858 10.25 11.25 10.5858 11.25 11V17C11.25 17.4142 11.5858 17.75 12 17.75Z" fill=" #483D8B" style="--darkreader-inline-fill: var(--darkreader-background-483d8b, #3a316f);" data-darkreader-inline-fill=""/> <path d="M12 7C12.5523 7 13 7.44771 13 8C13 8.55229 12.5523 9 12 9C11.4477 9 11 8.55229 11 8C11 7.44771 11.4477 7 12 7Z" fill=" #483D8B" style="--darkreader-inline-fill: #857ac5;" data-darkreader-inline-fill=""/> </g>
</svg>