<!DOCTYPE svg PUBLIC "-//W3C//DTD SVG 1.1//EN" "http://www.w3.org/Graphics/SVG/1.1/DTD/svg11.dtd">
<!-- Uploaded to: SVG Find, www.svgrepo.com, Transformed by: SVG Find Mixer Tools -->
<svg fill=" #483D8B" width="800px" height="800px" version="1.1" viewBox="144 144 512 512" xmlns="http://www.w3.org/2000/svg" style="--darkreader-inline-fill: #3a316f;" data-darkreader-inline-fill="">
<g id="SVGRepo_bgCarrier" stroke-width="0"/>
<g id="SVGRepo_tracerCarrier" stroke-linecap="round" stroke-linejoin="round"/>
<g id="SVGRepo_iconCarrier"> <g> <path d="m431.49 305.54c0 43.477-35.246 78.719-78.723 78.719s-78.719-35.242-78.719-78.719c0-43.477 35.242-78.723 78.719-78.723s78.723 35.246 78.723 78.723zm-31.488 0c0 26.086-21.148 47.23-47.234 47.23s-47.23-21.145-47.23-47.23c0-26.086 21.145-47.234 47.23-47.234s47.234 21.148 47.234 47.234z" fill-rule="evenodd"/> <path d="m388.48 525.95c9.9375 0 19.426-1.9453 28.094-5.4805 1.7656 10.77 6.2617 20.617 12.754 28.812-12.57 5.2539-26.371 8.1562-40.848 8.1562h-71.426c-58.535 0-105.98-47.449-105.98-105.98 0-6.1758 3.2383-11.848 8.9141-14.285 17.094-7.3438 59.445-21.426 132.78-21.426 31.688 0 57.59 2.6289 78.172 6.207-7.1172 8.2812-12.117 18.434-14.164 29.617-17.336-2.543-38.57-4.3359-64.008-4.3359-55.348 0-90.812 8.4883-109.47 14.754 5.1172 36.156 36.188 63.965 73.758 63.965z"/> <path d="m541.7 391.92c14.16 4.6602 30.559 8.0781 47.23 8.0781v-31.488c-20.48 0-41.664-6.9492-55.934-14.082l-22.785-11.395v106.88c-4.9258-1.7383-10.223-2.6875-15.746-2.6875-26.086 0-47.23 21.145-47.23 47.23 0 26.09 21.145 47.234 47.23 47.234 26.09 0 47.234-21.145 47.234-47.234z"/> </g> </g>
</svg>