<!DOCTYPE svg PUBLIC "-//W3C//DTD SVG 1.1//EN" "http://www.w3.org/Graphics/SVG/1.1/DTD/svg11.dtd">
<!-- Uploaded to: SVG Repo, www.svgrepo.com, Transformed by: SVG Repo Mixer Tools -->
<svg width="800px" height="800px" viewBox="0 0 24 24" fill="none" xmlns="http://www.w3.org/2000/svg">
<g id="SVGRepo_bgCarrier" stroke-width="0"/>
<g id="SVGRepo_tracerCarrier" stroke-linecap="round" stroke-linejoin="round"/>
<g id="SVGRepo_iconCarrier"> <path opacity="0.5" d="M21 12V6.71888C21 4.52896 21 3.434 20.2927 2.83487C19.5855 2.23574 18.5045 2.41591 16.3424 2.77626L15.288 2.95199C13.6477 3.22537 12.8276 3.36205 12 3.36205C11.1724 3.36205 10.3523 3.22537 8.71202 2.95199L7.6576 2.77626C5.49553 2.41591 4.4145 2.23574 3.70725 2.83487C3 3.434 3 4.52896 3 6.71888V12C3 17.4903 7.23896 20.1547 9.89856 21.286C10.62 21.5929 10.9807 21.7464 12 21.7464C13.0193 21.7464 13.38 21.5929 14.1014 21.286C16.761 20.1547 21 17.4903 21 12Z" stroke=" #483D8B" stroke-width="1.5" style="--darkreader-inline-stroke: #857ac5;" data-darkreader-inline-stroke=""/> <path d="M6.5 9C6.79112 8.4174 7.57665 8 8.5 8C9.42335 8 10.2089 8.4174 10.5 9" stroke=" #483D8B" stroke-width="1.5" stroke-linecap="round" style="--darkreader-inline-stroke: var(--darkreader-text-483d8b, #857ac5);" data-darkreader-inline-stroke=""/> <path d="M13.5 9C13.7911 8.4174 14.5766 8 15.5 8C16.4234 8 17.2089 8.4174 17.5 9" stroke=" #483D8B" stroke-width="1.5" stroke-linecap="round" style="--darkreader-inline-stroke: var(--darkreader-text-483d8b, #857ac5);" data-darkreader-inline-stroke=""/> <path d="M8.5 15C8.5 15 9.55 14 12 14C14.45 14 15.5 15 15.5 15" stroke=" #483D8B" stroke-width="1.5" stroke-linecap="round" style="--darkreader-inline-stroke: var(--darkreader-text-483d8b, #857ac5);" data-darkreader-inline-stroke=""/> </g>
</svg>