<?xml version="1.0" encoding="UTF-8"?>
<svg xmlns="http://www.w3.org/2000/svg" id="Layer_1" data-name="Layer 1" viewBox="0 0 24 24">
  <path d="M9,12c3.309,0,6-2.691,6-6S12.309,0,9,0,3,2.691,3,6s2.691,6,6,6Zm0-11c2.757,0,5,2.243,5,5s-2.243,5-5,5-5-2.243-5-5S6.243,1,9,1Zm14.854,22.146l-3.853-3.853c.616-.77,1-1.733,1-2.793,0-2.481-2.019-4.5-4.5-4.5s-4.5,2.019-4.5,4.5,2.019,4.5,4.5,4.5c1.06,0,2.023-.384,2.793-1l3.853,3.853c.098,.098,.226,.146,.354,.146s.256-.049,.354-.146c.195-.195,.195-.512,0-.707Zm-7.354-3.146c-1.93,0-3.5-1.57-3.5-3.5s1.57-3.5,3.5-3.5,3.5,1.57,3.5,3.5-1.57,3.5-3.5,3.5Zm-6.501-5.456c-.016,.275-.257,.482-.528,.47-.156-.009-.312-.014-.471-.014-4.411,0-8,3.589-8,8v.5c0,.276-.224,.5-.5,.5s-.5-.224-.5-.5v-.5c0-4.962,4.038-9,9-9,.178,0,.354,.005,.529,.016,.276,.016,.486,.253,.47,.528Z"/>
</svg>
