<!DOCTYPE svg PUBLIC "-//W3C//DTD SVG 1.1//EN" "http://www.w3.org/Graphics/SVG/1.1/DTD/svg11.dtd">
<!-- Uploaded to: SVG Repo, www.svgrepo.com, Transformed by: SVG Repo Mixer Tools -->
<svg width="800px" height="800px" viewBox="0 0 24 24" fill="none" xmlns="http://www.w3.org/2000/svg" transform="rotate(90)" stroke="#000000" stroke-width="0.00024000000000000003" style="--darkreader-inline-stroke: var(--darkreader-text-000000, #e8e6e3);" data-darkreader-inline-stroke="">
<g id="SVGRepo_bgCarrier" stroke-width="0"/>
<g id="SVGRepo_tracerCarrier" stroke-linecap="round" stroke-linejoin="round" stroke="#CCCCCC" stroke-width="0.4800000000000001" style="--darkreader-inline-stroke: #c8c3bc;" data-darkreader-inline-stroke=""/>
<g id="SVGRepo_iconCarrier"> <path opacity="0.5" d="M12 22C17.5228 22 22 17.5228 22 12C22 6.47715 17.5228 2 12 2C6.47715 2 2 6.47715 2 12C2 17.5228 6.47715 22 12 22Z" fill=" #483D8B" style="--darkreader-inline-fill: #3a316f;" data-darkreader-inline-fill=""/> <path d="M8 13C8.55228 13 9 12.5523 9 12C9 11.4477 8.55228 11 8 11C7.44772 11 7 11.4477 7 12C7 12.5523 7.44772 13 8 13Z" fill=" #483D8B" style="--darkreader-inline-fill: #857ac5;" data-darkreader-inline-fill=""/> <path d="M12 13C12.5523 13 13 12.5523 13 12C13 11.4477 12.5523 11 12 11C11.4477 11 11 11.4477 11 12C11 12.5523 11.4477 13 12 13Z" fill=" #483D8B" style="--darkreader-inline-fill: var(--darkreader-text-483d8b, #857ac5);" data-darkreader-inline-fill=""/> <path d="M16 13C16.5523 13 17 12.5523 17 12C17 11.4477 16.5523 11 16 11C15.4477 11 15 11.4477 15 12C15 12.5523 15.4477 13 16 13Z" fill=" #483D8B" style="--darkreader-inline-fill: var(--darkreader-text-483d8b, #857ac5);" data-darkreader-inline-fill=""/> </g>
</svg>