<!DOCTYPE svg PUBLIC "-//W3C//DTD SVG 1.1//EN" "http://www.w3.org/Graphics/SVG/1.1/DTD/svg11.dtd">
<!-- Uploaded to: SVG Repo, www.svgrepo.com, Transformed by: SVG Repo Mixer Tools -->
<svg width="256px" height="256px" viewBox="0 0 24.00 24.00" fill="none" xmlns="http://www.w3.org/2000/svg" transform="rotate(90)" stroke="#000000" stroke-width="0.00024000000000000003" style="--darkreader-inline-stroke: var(--darkreader-text-000000, #e8e6e3);" data-darkreader-inline-stroke="">
<g id="SVGRepo_bgCarrier" stroke-width="0"/>
<g id="SVGRepo_tracerCarrier" stroke-linecap="round" stroke-linejoin="round" stroke="#FFF" stroke-width="0.048" style="--darkreader-inline-stroke: var(--darkreader-text-ffffff, #e8e6e3);" data-darkreader-inline-stroke=""/>
<g id="SVGRepo_iconCarrier"> <path d="M7 12C7 13.1046 6.10457 14 5 14C3.89543 14 3 13.1046 3 12C3 10.8954 3.89543 10 5 10C6.10457 10 7 10.8954 7 12Z" fill=" #483D8B" style="--darkreader-inline-fill: #3a316f;" data-darkreader-inline-fill=""/> <path d="M21 12C21 13.1046 20.1046 14 19 14C17.8954 14 17 13.1046 17 12C17 10.8954 17.8954 10 19 10C20.1046 10 21 10.8954 21 12Z" fill=" #483D8B" style="--darkreader-inline-fill: var(--darkreader-background-483d8b, #3a316f);" data-darkreader-inline-fill=""/> <path opacity="0.5" d="M14 12C14 13.1046 13.1046 14 12 14C10.8954 14 10 13.1046 10 12C10 10.8954 10.8954 10 12 10C13.1046 10 14 10.8954 14 12Z" fill=" #483D8B" style="--darkreader-inline-fill: var(--darkreader-background-483d8b, #3a316f);" data-darkreader-inline-fill=""/> </g>
</svg>