<!DOCTYPE svg PUBLIC "-//W3C//DTD SVG 1.1//EN" "http://www.w3.org/Graphics/SVG/1.1/DTD/svg11.dtd">
<!-- Uploaded to: SVG Repo, www.svgrepo.com, Transformed by: SVG Repo Mixer Tools -->
<svg width="800px" height="800px" viewBox="0 0 24 24" fill="none" xmlns="http://www.w3.org/2000/svg">
<g id="SVGRepo_bgCarrier" stroke-width="0"/>
<g id="SVGRepo_tracerCarrier" stroke-linecap="round" stroke-linejoin="round"/>
<g id="SVGRepo_iconCarrier"> <path d="M7 8C7 5.23858 9.23858 3 12 3C14.7614 3 17 5.23858 17 8V11C17 13.7614 14.7614 16 12 16C9.23858 16 7 13.7614 7 11V8Z" stroke=" #483D8B" stroke-width="1.5" style="--darkreader-inline-stroke: #857ac5;" data-darkreader-inline-stroke=""/> <path opacity="0.5" d="M13.5 8L17 8" stroke=" #483D8B" stroke-width="1.5" stroke-linecap="round" style="--darkreader-inline-stroke: var(--darkreader-text-483d8b, #857ac5);" data-darkreader-inline-stroke=""/> <path opacity="0.5" d="M13.5 11L17 11" stroke=" #483D8B" stroke-width="1.5" stroke-linecap="round" style="--darkreader-inline-stroke: var(--darkreader-text-483d8b, #857ac5);" data-darkreader-inline-stroke=""/> <path opacity="0.5" d="M7 8L9 8" stroke=" #483D8B" stroke-width="1.5" stroke-linecap="round" style="--darkreader-inline-stroke: var(--darkreader-text-483d8b, #857ac5);" data-darkreader-inline-stroke=""/> <path opacity="0.5" d="M7 11L9 11" stroke=" #483D8B" stroke-width="1.5" stroke-linecap="round" style="--darkreader-inline-stroke: var(--darkreader-text-483d8b, #857ac5);" data-darkreader-inline-stroke=""/> <path opacity="0.5" d="M20 10V11C20 15.4183 16.4183 19 12 19M4 10V11C4 15.4183 7.58172 19 12 19M12 19V22" stroke=" #483D8B" stroke-width="1.5" stroke-linecap="round" style="--darkreader-inline-stroke: var(--darkreader-text-483d8b, #857ac5);" data-darkreader-inline-stroke=""/> </g>
</svg>