<?xml version="1.0" encoding="utf-8"?><!-- Uploaded to: SVG Repo, www.svgrepo.com, Generator: SVG Repo Mixer Tools -->
<svg fill="#000000" width="800px" height="800px" viewBox="0 0 24 24" id="music-lyric" data-name="Flat Line" xmlns="http://www.w3.org/2000/svg" class="icon flat-line"><path id="secondary" d="M9,10a1,1,0,0,1,1-1h7V4a1,1,0,0,0-1-1H5A1,1,0,0,0,4,4V18a1,1,0,0,0,1,1H9Z" style="fill: rgb(44, 169, 188); stroke-width: 2;"></path><path id="primary" d="M20,13H17v6" style="fill: none; stroke: rgb(0, 0, 0); stroke-linecap: round; stroke-linejoin: round; stroke-width: 2;"></path><path id="primary-2" data-name="primary" d="M9,19H5a1,1,0,0,1-1-1V4A1,1,0,0,1,5,3H16a1,1,0,0,1,1,1V9" style="fill: none; stroke: rgb(0, 0, 0); stroke-linecap: round; stroke-linejoin: round; stroke-width: 2;"></path><path id="primary-3" data-name="primary" d="M15,17a2,2,0,1,0,2,2A2,2,0,0,0,15,17ZM8,11h5M8,15h3" style="fill: none; stroke: rgb(0, 0, 0); stroke-linecap: round; stroke-linejoin: round; stroke-width: 2;"></path></svg>