<?xml version="1.0" encoding="UTF-8"?>
<svg xmlns="http://www.w3.org/2000/svg" id="Layer_1" data-name="Layer 1" viewBox="0 0 24 24" width="512" height="512"><path d="m16.949,16.702c.173-.885-.104-1.794-.741-2.431l-6.479-6.479c-.637-.638-1.547-.914-2.43-.741-.884.174-1.621.772-1.971,1.604L.18,20.881c-.356.845-.167,1.81.481,2.458.431.431,1.002.659,1.584.659.294,0,.591-.059.875-.178l12.227-5.147c.831-.35,1.43-1.087,1.603-1.971Zm-14.606,5.274c-.099.043-.19.025-.268-.052s-.095-.168-.052-.269l3.472-8.247,5.096,5.095-8.248,3.472Zm12.644-5.659c-.022.11-.105.381-.417.512h0l-1.989.837-6.248-6.247.838-1.99c.131-.311.402-.395.512-.416.033-.007.081-.013.138-.013.136,0,.326.037.494.205l6.479,6.479c.239.239.214.521.193.632ZM13.724.377c.345-.429.966-.5,1.396-.162.083.066,2.05,1.651,1.878,4.349-.067,1.057-.472,2.079-1.202,3.041-.196.259-.495.396-.797.396-.21,0-.423-.066-.604-.203-.44-.334-.526-.961-.192-1.401.488-.643.756-1.302.798-1.959.104-1.631-1.078-2.615-1.128-2.656-.425-.348-.494-.976-.15-1.403Zm9.853,13.44c-.175.123-.376.183-.575.183-.311,0-.616-.144-.811-.413-.03-.039-.46-.587-1.19-.587-.343,0-.647.098-.903.291-.441.334-1.068.245-1.401-.195-.333-.44-.245-1.068.196-1.4.603-.455,1.332-.695,2.108-.695,1.432,0,2.444.895,2.817,1.424.318.451.21,1.075-.241,1.394Zm-2.576-12.317c0-.828.672-1.5,1.5-1.5s1.5.672,1.5,1.5-.672,1.5-1.5,1.5-1.5-.672-1.5-1.5Zm-2,5c0-.828.672-1.5,1.5-1.5s1.5.672,1.5,1.5-.672,1.5-1.5,1.5-1.5-.672-1.5-1.5ZM8,2.5c0-.828.672-1.5,1.5-1.5s1.5.672,1.5,1.5-.672,1.5-1.5,1.5-1.5-.672-1.5-1.5Zm15,16c0,.828-.672,1.5-1.5,1.5s-1.5-.672-1.5-1.5.672-1.5,1.5-1.5,1.5.672,1.5,1.5ZM1,3.5c0-.828.672-1.5,1.5-1.5s1.5.672,1.5,1.5-.672,1.5-1.5,1.5-1.5-.672-1.5-1.5Zm17,19c0,.828-.672,1.5-1.5,1.5s-1.5-.672-1.5-1.5.672-1.5,1.5-1.5,1.5.672,1.5,1.5Z"/></svg>
