<!DOCTYPE svg PUBLIC "-//W3C//DTD SVG 1.1//EN" "http://www.w3.org/Graphics/SVG/1.1/DTD/svg11.dtd">
<!-- Uploaded to: SVG Repo, www.svgrepo.com, Transformed by: SVG Repo Mixer Tools -->
<svg width="800px" height="800px" viewBox="0 0 50 50" id="Message_And_Communication_Icons" version="1.1" xml:space="preserve" xmlns="http://www.w3.org/2000/svg" xmlns:xlink="http://www.w3.org/1999/xlink" fill="#483D8B" style="--darkreader-inline-fill: var(--darkreader-background-483d8b, #3a316f); --darkreader-inline-stroke: var(--darkreader-text-483d8b, #857ac5);" data-darkreader-inline-fill="" transform="rotate(0)" stroke="#483D8B" data-darkreader-inline-stroke="">
<g id="SVGRepo_bgCarrier" stroke-width="0"/>
<g id="SVGRepo_tracerCarrier" stroke-linecap="round" stroke-linejoin="round"/>
<g id="SVGRepo_iconCarrier"> <g> <g> <g> <g> <path d="M15.9,24.2c0.9,0.9,1.4,2.2,1.4,3.6c0,2.9-2.4,5.2-5.2,5.1c-0.6,0-1.2-0.1-1.7-0.3 c0.9,1,2.3,1.7,3.8,1.7c2.9,0,5.2-2.3,5.2-5.1C19.3,26.9,17.9,24.9,15.9,24.2z" style="fill: rgb(77, 224, 249); --darkreader-inline-fill: var(--darkreader-text-4de0f9, #51e1f9);" data-darkreader-inline-fill=""/> </g> </g> <g> <g> <path d="M13.4,34.2C13.4,34.2,13.4,34.2,13.4,34.2c-3.3,0-5.8-2.7-5.8-5.8c0-3.2,2.6-5.7,5.8-5.7 c0,0,0,0,0.1,0l0,1.2c-2.6,0-4.6,2-4.6,4.5c0,2.5,2,4.6,4.5,4.6c1.2,0,2.4-0.5,3.3-1.3c0.9-0.9,1.4-2,1.4-3.2 c0-1.8-1.1-3.5-2.8-4.3l0.5-1.1c2.1,0.9,3.5,3,3.5,5.4c0,1.5-0.6,3-1.7,4.1C16.4,33.6,14.9,34.2,13.4,34.2z" style="fill: rgb(13, 95, 195); --darkreader-inline-fill: var(--darkreader-text-0d5fc3, #5aacf4);" data-darkreader-inline-fill=""/> </g> </g> <g> <g> <path d="M20.8,44.1l0-1.7c0-2.8-1.7-5.2-4.1-6.3c1.3,1.2,2.1,3,2,4.9l0,3.1" style="fill: rgb(77, 224, 249); --darkreader-inline-fill: var(--darkreader-text-4de0f9, #51e1f9);" data-darkreader-inline-fill=""/> </g> </g> <g> <g> <path d="M20.7,43.4h-1.2v-1.7c0-3.4-2.7-6.2-6.1-6.2c0,0,0,0-0.1,0c-3.3,0-6.1,2.7-6.1,6.1v1.8H6.1v-1.8 c0-4,3.3-7.2,7.3-7.2c0,0,0.1,0,0.1,0c4,0,7.3,3.4,7.2,7.4V43.4z" style="fill: rgb(13, 95, 195); --darkreader-inline-fill: var(--darkreader-text-0d5fc3, #5aacf4);" data-darkreader-inline-fill=""/> </g> </g> </g> <g> <g> <g> <path d="M39.3,24.2c0.9,0.9,1.4,2.2,1.4,3.6c0,2.9-2.4,5.2-5.2,5.1c-0.6,0-1.2-0.1-1.7-0.3 c0.9,1,2.3,1.7,3.8,1.7c2.9,0,5.2-2.3,5.2-5.1C42.7,26.9,41.3,24.9,39.3,24.2z" style="fill: rgb(77, 224, 249); --darkreader-inline-fill: var(--darkreader-text-4de0f9, #51e1f9);" data-darkreader-inline-fill=""/> </g> </g> <g> <g> <path d="M36.8,34.2C36.8,34.2,36.8,34.2,36.8,34.2c-3.3,0-5.8-2.7-5.8-5.8c0-1.5,0.6-3,1.7-4.1 c1.1-1.1,2.6-1.7,4.1-1.6c1.5,0,3,0.6,4.1,1.7c1.1,1.1,1.7,2.6,1.6,4.1l0,0c0,1.5-0.6,3-1.7,4.1C39.8,33.6,38.4,34.2,36.8,34.2z M36.8,23.8c-1.2,0-2.3,0.5-3.2,1.3c-0.9,0.9-1.4,2-1.4,3.2c0,2.5,2,4.6,4.5,4.6c1.2,0,2.4-0.5,3.3-1.3s1.4-2,1.4-3.2l0,0 c0-1.2-0.5-2.4-1.3-3.3C39.3,24.3,38.1,23.8,36.8,23.8C36.9,23.8,36.9,23.8,36.8,23.8z" style="fill: rgb(13, 95, 195); --darkreader-inline-fill: var(--darkreader-text-0d5fc3, #5aacf4);" data-darkreader-inline-fill=""/> </g> </g> <g> <g> <path d="M44.2,44.1l0-1.7c0-2.8-1.7-5.2-4.1-6.3c1.3,1.2,2.1,3,2,4.9l0,3.1" style="fill: rgb(77, 224, 249); --darkreader-inline-fill: var(--darkreader-text-4de0f9, #51e1f9);" data-darkreader-inline-fill=""/> </g> </g> <g> <g> <path d="M44.2,43.4H43v-1.7c0-3.4-2.7-6.2-6.1-6.2c0,0,0,0-0.1,0c-1.6,0-3.1,0.6-4.3,1.7 c-1.2,1.1-1.8,2.7-1.8,4.3v1.8h-1.2v-1.8c0-4,3.3-7.2,7.3-7.2c0,0,0.1,0,0.1,0c4,0,7.3,3.4,7.2,7.4V43.4z" style="fill: rgb(13, 95, 195); --darkreader-inline-fill: var(--darkreader-text-0d5fc3, #5aacf4);" data-darkreader-inline-fill=""/> </g> </g> </g> <g> <g> <g> <polygon points="37.6,20.4 34.4,17.5 29.2,17.5 29.2,16.3 34.8,16.3 36.4,17.7 36.4,8 22.4,8 22.4,13.3 21.2,13.3 21.2,6.8 37.6,6.8 " style="fill: rgb(13, 95, 195); --darkreader-inline-fill: var(--darkreader-text-0d5fc3, #5aacf4);" data-darkreader-inline-fill=""/> </g> </g> </g> <g> <g> <g> <path d="M13.2,26.5V12.9h16.4v10.7H16.5L13.2,26.5z M14.4,14.1v9.8l1.6-1.5h12.4v-8.3H14.4z" style="fill: rgb(13, 95, 195); --darkreader-inline-fill: var(--darkreader-text-0d5fc3, #5aacf4);" data-darkreader-inline-fill=""/> </g> </g> <g> <g> <g> <path d="M18,19.6c-0.8,0-1.4-0.6-1.4-1.4s0.6-1.4,1.4-1.4c0.8,0,1.4,0.6,1.4,1.4S18.8,19.6,18,19.6z M18,17.9c-0.1,0-0.2,0.1-0.2,0.2c0,0.3,0.5,0.3,0.5,0C18.2,18,18.1,17.9,18,17.9z" style="fill: rgb(13, 95, 195); --darkreader-inline-fill: var(--darkreader-text-0d5fc3, #5aacf4);" data-darkreader-inline-fill=""/> </g> </g> <g> <g> <path d="M21.4,19.6c-0.8,0-1.4-0.6-1.4-1.4s0.6-1.4,1.4-1.4s1.4,0.6,1.4,1.4S22.2,19.6,21.4,19.6z M21.4,17.9c-0.1,0-0.2,0.1-0.2,0.2c0,0.3,0.5,0.3,0.5,0C21.6,18,21.5,17.9,21.4,17.9z" style="fill: rgb(13, 95, 195); --darkreader-inline-fill: var(--darkreader-text-0d5fc3, #5aacf4);" data-darkreader-inline-fill=""/> </g> </g> <g> <g> <path d="M24.8,19.6c-0.8,0-1.4-0.6-1.4-1.4s0.6-1.4,1.4-1.4s1.4,0.6,1.4,1.4S25.6,19.6,24.8,19.6z M24.8,17.9c-0.1,0-0.2,0.1-0.2,0.2c0,0.3,0.5,0.3,0.5,0C25.1,18,24.9,17.9,24.8,17.9z" style="fill: rgb(13, 95, 195); --darkreader-inline-fill: var(--darkreader-text-0d5fc3, #5aacf4);" data-darkreader-inline-fill=""/> </g> </g> </g> </g> </g> </g>
</svg>