<?xml version="1.0" encoding="UTF-8" standalone="no"?>


<!-- Uploaded to: SVG Repo, www.svgrepo.com, Generator: SVG Repo Mixer Tools -->
<svg 
   xmlns:dc="http://purl.org/dc/elements/1.1/"
   xmlns:cc="http://creativecommons.org/ns#"
   xmlns:rdf="http://www.w3.org/1999/02/22-rdf-syntax-ns#"
   xmlns:svg="http://www.w3.org/2000/svg"
   xmlns="http://www.w3.org/2000/svg"
   xmlns:sodipodi="http://sodipodi.sourceforge.net/DTD/sodipodi-0.dtd"
   xmlns:inkscape="http://www.inkscape.org/namespaces/inkscape"
   width="30"
   height="30"
   viewBox="0 0 30 30"
   version="1.1"
   id="svg822"
   inkscape:version="0.92.4 (f8dce91, 2019-08-02)"
   sodipodi:docname="playlist-add.svg">
  <defs
     id="defs816" />
  <sodipodi:namedview
     id="base"
     pagecolor="#ffffff"
     bordercolor="#666666"
     borderopacity="1.0"
     inkscape:pageopacity="0.0"
     inkscape:pageshadow="2"
     inkscape:zoom="8.9166667"
     inkscape:cx="-0.49685482"
     inkscape:cy="7.263158"
     inkscape:document-units="px"
     inkscape:current-layer="layer1"
     showgrid="true"
     units="px"
     inkscape:window-width="1366"
     inkscape:window-height="713"
     inkscape:window-x="0"
     inkscape:window-y="0"
     inkscape:window-maximized="1"
     showguides="false">
    <inkscape:grid
       type="xygrid"
       id="grid816" />
  </sodipodi:namedview>
  <metadata
     id="metadata819">
    <rdf:RDF>
      <cc:Work
         rdf:about="">
        <dc:format>image/svg+xml</dc:format>
        <dc:type
           rdf:resource="http://purl.org/dc/dcmitype/StillImage" />
        <dc:title>
</dc:title>
      </cc:Work>
    </rdf:RDF>
  </metadata>
  <g
     inkscape:label="Layer 1"
     inkscape:groupmode="layer"
     id="layer1"
     transform="translate(0,-289.0625)">
    <path
       style="opacity:1;fill:#000000;fill-opacity:1;stroke:none;stroke-width:2;stroke-miterlimit:4;stroke-dasharray:none;stroke-opacity:1"
       d="M 4 5 C 3.446 5 3 5.446 3 6 C 3 6.554 3.446 7 4 7 L 19 7 C 19.554 7 20 6.554 20 6 C 20 5.446 19.554 5 19 5 L 4 5 z M 4 12 C 3.446 12 3 12.446 3 13 C 3 13.554 3.446 14 4 14 L 22 14 C 22.554 14 23 13.554 23 13 C 23 12.446 22.554 12 22 12 L 4 12 z M 21.949219 17.003906 C 21.606467 17.003906 21.272206 17.037416 20.949219 17.103516 L 20.949219 20.955078 L 17.099609 20.955078 C 17.033519 21.278118 17 21.612328 17 21.955078 C 17 22.297828 17.033519 22.632088 17.099609 22.955078 L 20.949219 22.955078 L 20.949219 26.804688 C 21.272206 26.870788 21.606467 26.904297 21.949219 26.904297 C 22.29197 26.904297 22.626178 26.870788 22.949219 26.804688 L 22.949219 22.955078 L 26.800781 22.955078 C 26.866921 22.632088 26.900391 22.297828 26.900391 21.955078 C 26.900391 21.612328 26.866921 21.278118 26.800781 20.955078 L 22.949219 20.955078 L 22.949219 17.103516 C 22.626178 17.037416 22.29197 17.003906 21.949219 17.003906 z M 4 19 C 3.446 19 3 19.446 3 20 C 3 20.554 3.446 21 4 21 L 14 21 C 14.554 21 15 20.554 15 20 C 15 19.446 14.554 19 14 19 L 4 19 z "
       transform="translate(0,289.0625)"
       id="rect887" />
  </g>
</svg>