<?xml version="1.0" encoding="utf-8"?><!-- Uploaded to: SVG Repo, www.svgrepo.com, Generator: SVG Repo Mixer Tools -->
<svg width="800px" height="800px" viewBox="0 0 16 16" xmlns="http://www.w3.org/2000/svg">
  <path fill="#000000" fill-rule="evenodd" d="M8,12 C9.10457,12 10,12.8954 10,14 C10,15.1046 9.10457,16 8,16 C6.89543,16 6,15.1046 6,14 C6,12.8954 6.89543,12 8,12 Z M8,-3.10862447e-14 C8.55229,-3.10862447e-14 9,0.447715 9,1 L9,6.58579 L10.2929,5.2929 C10.6834,4.90237 11.3166,4.90237 11.7071,5.2929 C12.0976,5.68342 12.0976,6.31658 11.7071,6.70711 L8,10.4142 L4.29289,6.70711 C3.90237,6.31658 3.90237,5.68342 4.29289,5.2929 C4.68342,4.90237 5.31658,4.90237 5.70711,5.2929 L7,6.58579 L7,1 C7,0.447715 7.44772,-3.10862447e-14 8,-3.10862447e-14 Z"/>
</svg>