<!DOCTYPE svg PUBLIC "-//W3C//DTD SVG 1.1//EN" "http://www.w3.org/Graphics/SVG/1.1/DTD/svg11.dtd">
<!-- Uploaded to: SVG Repo, www.svgrepo.com, Transformed by: SVG Repo Mixer Tools -->
<svg width="800px" height="800px" viewBox="0 0 24 24" fill="none" xmlns="http://www.w3.org/2000/svg">
<g id="SVGRepo_bgCarrier" stroke-width="0"/>
<g id="SVGRepo_tracerCarrier" stroke-linecap="round" stroke-linejoin="round"/>
<g id="SVGRepo_iconCarrier"> <path d="M5 15C5 16.8565 5.73754 18.6371 7.05029 19.9498C8.36305 21.2626 10.1435 21.9999 12 21.9999C13.8565 21.9999 15.637 21.2626 16.9498 19.9498C18.2625 18.6371 19 16.8565 19 15V9C19 7.14348 18.2625 5.36305 16.9498 4.05029C15.637 2.73754 13.8565 2 12 2C10.1435 2 8.36305 2.73754 7.05029 4.05029C5.73754 5.36305 5 7.14348 5 9V15Z" stroke="#483d8b" stroke-width="1.5" stroke-linecap="round" stroke-linejoin="round" style="--darkreader-inline-stroke: var(--darkreader-text-483d8b, #857ac5);" data-darkreader-inline-stroke=""/> <path d="M12 6V14" stroke="#483d8b" stroke-width="1.5" stroke-linecap="round" stroke-linejoin="round" style="--darkreader-inline-stroke: var(--darkreader-text-483d8b, #857ac5);" data-darkreader-inline-stroke=""/> <path d="M15 11L12 14L9 11" stroke="#483d8b" stroke-width="1.5" stroke-linecap="round" stroke-linejoin="round" style="--darkreader-inline-stroke: var(--darkreader-text-483d8b, #857ac5);" data-darkreader-inline-stroke=""/> </g>
</svg>