<!DOCTYPE svg PUBLIC "-//W3C//DTD SVG 1.1//EN" "http://www.w3.org/Graphics/SVG/1.1/DTD/svg11.dtd">
<!-- Uploaded to: SVG Repo, www.svgrepo.com, Transformed by: SVG Repo Mixer Tools -->
<svg width="800px" height="800px" viewBox="0 0 24 24" fill="none" xmlns="http://www.w3.org/2000/svg">
<g id="SVGRepo_bgCarrier" stroke-width="0"/>
<g id="SVGRepo_tracerCarrier" stroke-linecap="round" stroke-linejoin="round"/>
<g id="SVGRepo_iconCarrier"> <path d="M2 8C2 5.17157 2 3.75736 2.87868 2.87868C3.75736 2 5.17157 2 8 2H9C11.8284 2 13.2426 2 14.1213 2.87868C15 3.75736 15 5.17157 15 8V16C15 18.8284 15 20.2426 14.1213 21.1213C13.2426 22 11.8284 22 9 22H8C5.17157 22 3.75736 22 2.87868 21.1213C2 20.2426 2 18.8284 2 16V8Z" stroke=" #483D8B" stroke-width="1.5" style="--darkreader-inline-stroke: #857ac5;" data-darkreader-inline-stroke=""/> <path d="M17.5 10.0068C19.3597 10.0337 20.414 10.1717 21.1213 10.879C22 11.7577 22 13.1719 22 16.0003C22 18.8287 22 20.243 21.1213 21.1216C20.414 21.829 19.3597 21.9669 17.5 21.9938" stroke=" #483D8B" stroke-width="1.5" stroke-linecap="round" style="--darkreader-inline-stroke: var(--darkreader-text-483d8b, #857ac5);" data-darkreader-inline-stroke=""/> <path opacity="0.5" d="M11 5H6" stroke=" #483D8B" stroke-width="1.5" stroke-linecap="round" style="--darkreader-inline-stroke: var(--darkreader-text-483d8b, #857ac5);" data-darkreader-inline-stroke=""/> <path opacity="0.5" d="M19 18V14" stroke=" #483D8B" stroke-width="1.5" stroke-linecap="round" style="--darkreader-inline-stroke: var(--darkreader-text-483d8b, #857ac5);" data-darkreader-inline-stroke=""/> <path opacity="0.5" d="M10 17.5C10 18.3284 9.32843 19 8.5 19C7.67157 19 7 18.3284 7 17.5C7 16.6716 7.67157 16 8.5 16C9.32843 16 10 16.6716 10 17.5Z" stroke=" #483D8B" stroke-width="1.5" style="--darkreader-inline-stroke: var(--darkreader-text-483d8b, #857ac5);" data-darkreader-inline-stroke=""/> <path opacity="0.5" d="M20.5 6.98598L22 8C22 4.98532 19.8377 2.48275 17 2" stroke=" #483D8B" stroke-width="1.5" stroke-linecap="round" stroke-linejoin="round" style="--darkreader-inline-stroke: var(--darkreader-text-483d8b, #857ac5);" data-darkreader-inline-stroke=""/> </g>
</svg>