<?xml version="1.0" encoding="UTF-8"?>
<svg xmlns="http://www.w3.org/2000/svg" id="Layer_1" data-name="Layer 1" viewBox="0 0 24 24">
  <path d="m23.707,22.293l-5.969-5.969c1.412-1.725,2.262-3.927,2.262-6.324C20,4.486,15.514,0,10,0S0,4.486,0,10s4.486,10,10,10c2.398,0,4.6-.85,6.324-2.262l5.969,5.969c.195.195.451.293.707.293s.512-.098.707-.293c.391-.391.391-1.023,0-1.414ZM2,10C2,5.589,5.589,2,10,2s8,3.589,8,8-3.589,8-8,8S2,14.411,2,10Zm9-4v8c0,.553-.448,1-1,1s-1-.447-1-1V6c0-.553.448-1,1-1s1,.447,1,1Zm3,3v2c0,.553-.448,1-1,1s-1-.447-1-1v-2c0-.553.448-1,1-1s1,.447,1,1Zm-6-1v4c0,.553-.448,1-1,1s-1-.447-1-1v-4c0-.553.448-1,1-1s1,.447,1,1Z"/>
</svg>
