<?xml version="1.0" encoding="utf-8"?><!-- Uploaded to: SVG Repo, www.svgrepo.com, Generator: SVG Repo Mixer Tools -->
<svg fill="#000000" width="800px" height="800px" viewBox="0 0 1024 1024" xmlns="http://www.w3.org/2000/svg"><path d="M455.944 674.824c-27.871 11.202-50.273 33.602-61.471 61.471-42.927 106.818 56.983 206.722 163.803 163.794 27.867-11.2 50.262-33.597 61.462-61.471 42.928-106.819-56.974-206.721-163.794-163.794zm-15.274-38.006c140.293-56.38 273.453 76.78 217.074 217.071-15.362 38.232-45.967 68.84-84.194 84.205-140.293 56.38-273.463-76.781-217.084-217.072 15.36-38.229 45.974-68.839 84.203-84.204zm25.514-513.93c-27.871 11.202-50.273 33.602-61.471 61.471-42.927 106.818 56.983 206.722 163.803 163.794 27.867-11.2 50.262-33.597 61.462-61.471 42.928-106.819-56.974-206.721-163.794-163.794zM450.91 84.882c140.293-56.38 273.453 76.78 217.074 217.071-15.362 38.232-45.967 68.84-84.194 84.205-140.293 56.38-273.463-76.781-217.084-217.072 15.36-38.229 45.974-68.839 84.203-84.204zM146.929 189.583h92.805c11.311 0 20.48-9.169 20.48-20.48s-9.169-20.48-20.48-20.48h-92.805c-11.311 0-20.48 9.169-20.48 20.48s9.169 20.48 20.48 20.48z"/><path d="M260.214 261.908v-92.805c0-11.311-9.169-20.48-20.48-20.48s-20.48 9.169-20.48 20.48v92.805c0 11.311 9.169 20.48 20.48 20.48s20.48-9.169 20.48-20.48z"/><path d="M250.011 849.625c-87.4-87.4-137.372-205.543-137.372-331.641 0-119.519 44.857-231.97 124.29-318.029 7.672-8.312 7.153-21.268-1.159-28.94s-21.268-7.153-28.94 1.159c-86.349 93.552-135.151 215.893-135.151 345.81 0 137.072 54.364 265.599 149.369 360.604 7.998 7.998 20.965 7.998 28.963 0s7.998-20.965 0-28.963zm626.436-5.999h-92.805c-11.311 0-20.48 9.169-20.48 20.48s9.169 20.48 20.48 20.48h92.805c11.311 0 20.48-9.169 20.48-20.48s-9.169-20.48-20.48-20.48z"/><path d="M763.162 771.301v92.805c0 11.311 9.169 20.48 20.48 20.48s20.48-9.169 20.48-20.48v-92.805c0-11.311-9.169-20.48-20.48-20.48s-20.48 9.169-20.48 20.48z"/><path d="M773.365 183.585c87.4 87.4 137.372 205.543 137.372 331.641 0 119.519-44.857 231.97-124.29 318.029-7.672 8.312-7.153 21.268 1.159 28.94s21.268 7.153 28.94-1.159c86.349-93.552 135.151-215.893 135.151-345.81 0-137.072-54.364-265.599-149.369-360.604-7.998-7.998-20.965-7.998-28.963 0s-7.998 20.965 0 28.963z"/></svg>