<?xml version="1.0" encoding="iso-8859-1"?>
<!-- Uploaded to: SVG Repo, www.svgrepo.com, Generator: SVG Repo Mixer Tools -->
<!DOCTYPE svg PUBLIC "-//W3C//DTD SVG 1.1//EN" "http://www.w3.org/Graphics/SVG/1.1/DTD/svg11.dtd">
<svg fill="#000000" height="800px" width="800px" version="1.1" id="Capa_1" xmlns="http://www.w3.org/2000/svg" xmlns:xlink="http://www.w3.org/1999/xlink" 
	 viewBox="0 0 455.257 455.257" xml:space="preserve">
<g id="XMLID_71_">
	<path id="XMLID_86_" d="M297.234,109.218c-7.424-4.981-17.501-2.989-22.478,4.421c-0.001,0.002-0.002,0.003-0.003,0.004
		c-6.063,9.036-25.238,37.611-31.229,46.539c-0.001,0-61.619-0.277-61.62-0.277l25.824-6.835c0,0-6.242-0.072-50.231-0.072
		c-12.503,0-22.684,10.136-22.684,22.685v116.164l-2.424,57.929l-32.395,78.628c-4.091,9.928,0.642,21.293,10.57,25.383
		c9.927,4.092,21.293-0.642,25.383-10.57l33.701-81.797c0.864-2.097,1.354-4.328,1.449-6.593
		c2.885-68.934,2.586-61.298,2.586-62.759h6.583l20.188,55.042l-17.932,84.672c-2.225,10.505,4.488,20.824,14.993,23.049
		c10.496,2.225,20.824-4.482,23.049-14.992l19.09-90.145c0.757-3.575,0.491-7.292-0.768-10.724l-18.253-49.768v-88.11l-36.617-8.771
		l68.048,0.307c5.608,0,10.592-2.804,13.527-7.174L301.66,131.7C306.615,124.321,304.709,114.232,297.234,109.218z"/>
	<path id="XMLID_1021_" d="M325.235,67.772c-10.404,0-58.969,0-66.419,0V43.107c5.624,2.203,10.796,5.543,15.149,9.897l8.329,8.329
		c3.417,3.424,9.306,1,9.306-3.854V5.458c0-4.838-5.878-7.288-9.306-3.854l-9.282,9.28c-5.156,5.156-11.455,8.904-18.3,11.005
		h-35.229c-18.523,0-33.592,15.39-32.91,34.154c14.118,2.309,26.395,10.151,34.528,21.225c2.383,3.244,4.411,6.764,6.023,10.504
		h13.78v23c-12.683,0-15.831,0-29.479,0c0.034-0.617,0.054-1.236,0.054-1.861c0-18.546-15.034-33.58-33.58-33.58
		c-18.545,0-33.58,15.034-33.58,33.58c0,18.545,15.034,33.58,33.58,33.58c10.193,0,19.319-4.548,25.477-11.718
		c15.839,0-1.251,0,41.151,0c8.013-11.941,6.301-9.39,14.29-21.294V87.772c15.236,0,21.813,0,37.258,0v4.146
		c7.179,1.836,13.463,6.044,17.912,12.249V87.772h11.249c6.341,0,11.5,5.158,11.5,11.499c0,6.342-5.159,11.501-11.501,11.501h-7.609
		c2.512,6.208,3.081,13.191,1.298,19.974c-0.002,0.009-0.006,0.018-0.008,0.026h6.319c17.37,0,31.501-14.131,31.501-31.501
		C356.735,81.903,342.604,67.772,325.235,67.772z M219.483,67.772c-7.135,0-12.941-5.805-12.941-12.94
		c0-7.137,5.805-12.942,12.941-12.942h21.421v25.883C209.609,67.772,225.837,67.772,219.483,67.772z"/>
</g>
</svg>