<!DOCTYPE svg PUBLIC "-//W3C//DTD SVG 1.1//EN" "http://www.w3.org/Graphics/SVG/1.1/DTD/svg11.dtd">
<!-- Uploaded to: SVG Repo, www.svgrepo.com, Transformed by: SVG Repo Mixer Tools -->
<svg width="800px" height="800px" viewBox="0 0 24 24" fill="none" xmlns="http://www.w3.org/2000/svg">
<g id="SVGRepo_bgCarrier" stroke-width="0"/>
<g id="SVGRepo_tracerCarrier" stroke-linecap="round" stroke-linejoin="round"/>
<g id="SVGRepo_iconCarrier"> <path opacity="0.4" d="M16.8203 2H7.18031C5.05031 2 3.32031 3.74 3.32031 5.86V19.95C3.32031 21.75 4.61031 22.51 6.19031 21.64L11.0703 18.93C11.5903 18.64 12.4303 18.64 12.9403 18.93L17.8203 21.64C19.4003 22.52 20.6903 21.76 20.6903 19.95V5.86C20.6803 3.74 18.9503 2 16.8203 2Z" fill="#483d8b" style="--darkreader-inline-fill: var(--darkreader-background-483d8b, #3a316f);" data-darkreader-inline-fill=""/> <path d="M14.5 11.3999H9.5C9.09 11.3999 8.75 11.0599 8.75 10.6499C8.75 10.2399 9.09 9.8999 9.5 9.8999H14.5C14.91 9.8999 15.25 10.2399 15.25 10.6499C15.25 11.0599 14.91 11.3999 14.5 11.3999Z" fill="#483d8b" style="--darkreader-inline-fill: var(--darkreader-background-483d8b, #3a316f);" data-darkreader-inline-fill=""/> </g>
</svg>