<?xml version="1.0" encoding="UTF-8"?>
<svg xmlns="http://www.w3.org/2000/svg" id="Layer_1" data-name="Layer 1" viewBox="0 0 24 24" width="512" height="512"><path d="M12,0C5.383,0,0,5.383,0,12s5.383,12,12,12,12-5.383,12-12S18.617,0,12,0Zm0,23c-6.065,0-11-4.935-11-11S5.935,1,12,1s11,4.935,11,11-4.935,11-11,11Zm.5-5.5c0,.276-.224,.5-.5,.5-3.17,0-5.266-2.059-5.354-2.146-.195-.195-.195-.511,0-.706,.195-.195,.512-.195,.707-.002,.019,.019,1.902,1.854,4.647,1.854,.276,0,.5,.224,.5,.5Zm2.5-7.5c0-.552,.448-1,1-1s1,.448,1,1-.448,1-1,1-1-.448-1-1Zm-8,0c0-.552,.448-1,1-1s1,.448,1,1-.448,1-1,1-1-.448-1-1Zm9.002,2.5h-.002c-.147,0-.287,.065-.382,.177-.166,.196-1.618,1.956-1.618,3.323,0,1.103,.897,2,2,2s2-.897,2-2c0-1.334-1.45-3.12-1.615-3.319-.095-.114-.235-.18-.383-.181Zm-.002,4.5c-.551,0-1-.449-1-1,0-.635,.556-1.56,.998-2.178,.482,.683,1.002,1.603,1.002,2.178,0,.551-.449,1-1,1Z"/></svg>
