<?xml version="1.0" encoding="iso-8859-1"?>
<!-- Uploaded to: SVG Repo, www.svgrepo.com, Generator: SVG Repo Mixer Tools -->
<!DOCTYPE svg PUBLIC "-//W3C//DTD SVG 1.1//EN" "http://www.w3.org/Graphics/SVG/1.1/DTD/svg11.dtd">
<svg fill="#000000" version="1.1" id="Capa_1" xmlns="http://www.w3.org/2000/svg" xmlns:xlink="http://www.w3.org/1999/xlink" 
	 width="800px" height="800px" viewBox="0 0 342.485 342.485"
	 xml:space="preserve">
<g>
	<g id="Artwork_17_">
		<g id="Layer_5_17_">
			<g>
				<g>
					<path d="M57.389,5.386C46.946,8.941,44.282,22.838,42.715,23.37c-1.373,0.469-11.69-9.012-22.603-5.298
						C9.499,21.684,3.81,33.389,6.852,44.184c1.717,6.098,5.199,9.994,9.325,13.196c8.238,6.396,38.758,18.164,43.756,16.46
						c5.103-1.734,21.918-29.531,24.557-39.712c1.316-5.075,1.696-10.266-0.663-16.146C79.651,7.573,68.005,1.771,57.389,5.386"/>
					<path d="M177.981,1.077c10.443,3.555,13.107,17.453,14.674,17.986c1.373,0.467,11.691-9.012,22.604-5.299
						c10.613,3.614,16.303,15.316,13.261,26.114c-1.718,6.095-5.199,9.993-9.324,13.192c-8.239,6.399-38.76,18.165-43.757,16.463
						c-5.102-1.735-21.917-29.532-24.557-39.713c-1.315-5.075-1.695-10.265,0.663-16.145C155.72,3.266,167.366-2.537,177.981,1.077"
						/>
				</g>
				<path d="M137.886,119.972c-11.318,0-18.502,12.621-20.198,12.621c-1.488,0-8.377-12.621-20.204-12.621
					c-11.503,0-20.898,9.486-21.513,20.977c-0.345,6.488,1.747,11.429,4.693,15.9c5.89,8.938,31.643,30.455,37.061,30.455
					c5.53,0,31.051-21.438,36.981-30.455c2.954-4.491,5.041-9.412,4.692-15.9C158.784,129.458,149.391,119.972,137.886,119.972"/>
				<path d="M114.504,341.711c58.236,5.597,76.156-19.555,84.51-61.44c2.496-12.721,4.989-25.44,7.477-38.16l8.751-35.935
					c11.712-12.857,48.269,9.944,55.11,12.641c19.207,7.551,36.841,7.335,64.713-14.347l1.385-4.293l-0.555-2.342l-3.939-2.193
					c-32.104,0.166-47.692-26.384-65.576-48.769c-19.998-25.012-47.97-24.802-53.075-6.294c-0.908,3.292-3.232,13.271-3.232,13.271
					c-0.832,2.98-1.543,5.986-2.194,9.017l-23.189,95.212c-1.109,3.906-3.141,3.185-4.157,2.518
					c-17.992-11.799-36.609-17.806-58.177-16.615c-24.447,1.363-50.835,13.236-61.006,34.603
					C40.589,322.215,84.199,338.799,114.504,341.711z"/>
			</g>
		</g>
	</g>
</g>
</svg>