<!DOCTYPE svg PUBLIC "-//W3C//DTD SVG 1.1//EN" "http://www.w3.org/Graphics/SVG/1.1/DTD/svg11.dtd">
<!-- Uploaded to: SVG Find, www.svgrepo.com, Transformed by: SVG Find Mixer Tools -->
<svg fill=" #483D8B" width="800px" height="800px" version="1.1" viewBox="144 144 512 512" xmlns="http://www.w3.org/2000/svg" style="--darkreader-inline-fill: #3a316f;" data-darkreader-inline-fill="">
<g id="SVGRepo_bgCarrier" stroke-width="0"/>
<g id="SVGRepo_tracerCarrier" stroke-linecap="round" stroke-linejoin="round"/>
<g id="SVGRepo_iconCarrier"> <path d="m468.02 330.97c3.3438 2.7852 3.793 7.75 1.0078 11.094-2.7852 3.3398-7.75 3.7891-11.09 1.0039l-34.32-28.602v93.402c0.054688 14.602-6.6211 28.41-18.094 37.438-11.477 9.0273-26.473 12.266-40.648 8.7773-14.176-3.4883-25.957-13.316-31.93-26.641-5.9766-13.32-5.4766-28.652 1.3477-41.559 6.8242-12.91 19.215-21.953 33.59-24.516 14.371-2.5625 29.125 1.6367 39.992 11.391v-75.098c0.003906-3.0547 1.7695-5.832 4.5352-7.1289s6.0312-0.875 8.3789 1.0781zm144.53-96.285v275.52c-0.003907 4.1719-1.6641 8.1758-4.6172 11.125-2.9531 2.9531-6.9531 4.6133-11.125 4.6172h-153.39l-37.012 51.809c-1.4766 2.0703-3.8633 3.2969-6.4023 3.2969-2.543 0-4.9297-1.2266-6.4062-3.2969l-37.012-51.809h-153.38c-4.1758-0.003907-8.1758-1.6641-11.129-4.6133-2.9531-2.9531-4.6133-6.9531-4.6172-11.129v-275.52c0.003906-4.1758 1.6641-8.1758 4.6172-11.129 2.9531-2.9531 6.9531-4.6133 11.129-4.6172h393.6c4.1719 0.007813 8.1719 1.668 11.125 4.6172 2.9531 2.9531 4.6133 6.9531 4.6172 11.129zm-15.727 275.52-0.015625-275.52h-393.6v275.52h157.43c2.543 0 4.9297 1.2305 6.4062 3.2969l32.965 46.133 32.961-46.129h-0.003907c1.4766-2.0703 3.8594-3.3008 6.4023-3.3008z"/> </g>
</svg>